<mxfile host="app.diagrams.net" agent="Mozilla/5.0 (Windows NT 10.0; Win64; x64) AppleWebKit/537.36 (KHTML, like Gecko) Chrome/131.0.0.0 Safari/537.36 Edg/131.0.0.0" scale="1" border="0" version="25.0.3">
  <diagram name="PÃ¡gina-1" id="8yU_Sb3q8nfaHzgQaiEC">
    <mxGraphModel dx="3034" dy="905" grid="1" gridSize="10" guides="1" tooltips="1" connect="1" arrows="1" fold="1" page="1" pageScale="1" pageWidth="827" pageHeight="1169" math="0" shadow="0">
      <root>
        <mxCell id="0" />
        <mxCell id="1" parent="0" />
        <mxCell id="TBOXvc80CKV6nfEF6dhi-36" style="endArrow=none;html=1;rounded=0;exitX=0.5;exitY=0;exitDx=0;exitDy=0;entryX=0.5;entryY=1;entryDx=0;entryDy=0;" parent="1" source="TBOXvc80CKV6nfEF6dhi-10" target="TBOXvc80CKV6nfEF6dhi-24" edge="1">
          <mxGeometry relative="1" as="geometry" />
        </mxCell>
        <mxCell id="TBOXvc80CKV6nfEF6dhi-10" value="Mueble" style="rounded=1;arcSize=10;whiteSpace=wrap;html=1;align=center;" parent="1" vertex="1">
          <mxGeometry x="70" y="320" width="120" height="40" as="geometry" />
        </mxCell>
        <mxCell id="TBOXvc80CKV6nfEF6dhi-16" value="Cliente" style="rounded=1;arcSize=10;whiteSpace=wrap;html=1;align=center;" parent="1" vertex="1">
          <mxGeometry x="70" y="937.5" width="120" height="40" as="geometry" />
        </mxCell>
        <mxCell id="TBOXvc80CKV6nfEF6dhi-17" value="Proveedor" style="rounded=1;arcSize=10;whiteSpace=wrap;html=1;align=center;" parent="1" vertex="1">
          <mxGeometry x="-580" y="140" width="120" height="40" as="geometry" />
        </mxCell>
        <mxCell id="TBOXvc80CKV6nfEF6dhi-18" value="Empleado" style="rounded=1;arcSize=10;whiteSpace=wrap;html=1;align=center;" parent="1" vertex="1">
          <mxGeometry x="440" y="617.5" width="120" height="40" as="geometry" />
        </mxCell>
        <mxCell id="TBOXvc80CKV6nfEF6dhi-44" style="edgeStyle=orthogonalEdgeStyle;rounded=0;orthogonalLoop=1;jettySize=auto;html=1;exitX=1;exitY=0.5;exitDx=0;exitDy=0;entryX=0;entryY=0.5;entryDx=0;entryDy=0;" parent="1" source="TBOXvc80CKV6nfEF6dhi-20" target="TBOXvc80CKV6nfEF6dhi-18" edge="1">
          <mxGeometry relative="1" as="geometry" />
        </mxCell>
        <mxCell id="9bLzDCfXXZlXbpBvJnL8-10" style="endArrow=none;html=1;rounded=0;entryX=1;entryY=0.5;entryDx=0;entryDy=0;exitX=0;exitY=0.5;exitDx=0;exitDy=0;" parent="1" source="TBOXvc80CKV6nfEF6dhi-20" target="TBOXvc80CKV6nfEF6dhi-37" edge="1">
          <mxGeometry relative="1" as="geometry" />
        </mxCell>
        <mxCell id="TBOXvc80CKV6nfEF6dhi-20" value="Facturar" style="shape=rhombus;perimeter=rhombusPerimeter;whiteSpace=wrap;html=1;align=center;" parent="1" vertex="1">
          <mxGeometry x="300" y="607.5" width="60" height="60" as="geometry" />
        </mxCell>
        <mxCell id="TBOXvc80CKV6nfEF6dhi-21" value="despachar" style="shape=rhombus;perimeter=rhombusPerimeter;whiteSpace=wrap;html=1;align=center;" parent="1" vertex="1">
          <mxGeometry x="100" y="767.5" width="60" height="60" as="geometry" />
        </mxCell>
        <mxCell id="TBOXvc80CKV6nfEF6dhi-22" value="Registrar" style="shape=rhombus;perimeter=rhombusPerimeter;whiteSpace=wrap;html=1;align=center;" parent="1" vertex="1">
          <mxGeometry x="100" y="470" width="60" height="60" as="geometry" />
        </mxCell>
        <mxCell id="TBOXvc80CKV6nfEF6dhi-28" style="edgeStyle=orthogonalEdgeStyle;rounded=0;orthogonalLoop=1;jettySize=auto;html=1;exitX=0;exitY=0.5;exitDx=0;exitDy=0;entryX=1;entryY=0.5;entryDx=0;entryDy=0;" parent="1" source="TBOXvc80CKV6nfEF6dhi-24" target="TBOXvc80CKV6nfEF6dhi-17" edge="1">
          <mxGeometry relative="1" as="geometry">
            <mxPoint x="-380" y="160" as="targetPoint" />
          </mxGeometry>
        </mxCell>
        <mxCell id="TBOXvc80CKV6nfEF6dhi-24" value="Suministrar" style="shape=rhombus;perimeter=rhombusPerimeter;whiteSpace=wrap;html=1;align=center;" parent="1" vertex="1">
          <mxGeometry x="100" y="130" width="60" height="60" as="geometry" />
        </mxCell>
        <mxCell id="TBOXvc80CKV6nfEF6dhi-37" value="Venta" style="rounded=1;arcSize=10;whiteSpace=wrap;html=1;align=center;" parent="1" vertex="1">
          <mxGeometry x="70" y="617.5" width="120" height="40" as="geometry" />
        </mxCell>
        <mxCell id="TBOXvc80CKV6nfEF6dhi-45" value="Id_proveedor" style="ellipse;whiteSpace=wrap;html=1;align=center;fontStyle=4;" parent="1" vertex="1">
          <mxGeometry x="-490" y="40" width="100" height="40" as="geometry" />
        </mxCell>
        <mxCell id="TBOXvc80CKV6nfEF6dhi-47" value="Direccion" style="ellipse;whiteSpace=wrap;html=1;align=center;" parent="1" vertex="1">
          <mxGeometry x="-440" y="180" width="100" height="40" as="geometry" />
        </mxCell>
        <mxCell id="TBOXvc80CKV6nfEF6dhi-48" value="Responsable" style="ellipse;whiteSpace=wrap;html=1;align=center;" parent="1" vertex="1">
          <mxGeometry x="-650" y="40" width="100" height="40" as="geometry" />
        </mxCell>
        <mxCell id="TBOXvc80CKV6nfEF6dhi-49" value="Nombre" style="ellipse;whiteSpace=wrap;html=1;align=center;" parent="1" vertex="1">
          <mxGeometry x="-440" y="100" width="100" height="40" as="geometry" />
        </mxCell>
        <mxCell id="TBOXvc80CKV6nfEF6dhi-51" value="Tipo_mueble" style="ellipse;whiteSpace=wrap;html=1;align=center;" parent="1" vertex="1">
          <mxGeometry x="-650" y="240" width="100" height="40" as="geometry" />
        </mxCell>
        <mxCell id="TBOXvc80CKV6nfEF6dhi-52" value="Telefono" style="ellipse;shape=doubleEllipse;margin=3;whiteSpace=wrap;html=1;align=center;" parent="1" vertex="1">
          <mxGeometry x="-490" y="240" width="100" height="40" as="geometry" />
        </mxCell>
        <mxCell id="TBOXvc80CKV6nfEF6dhi-59" value="" style="endArrow=none;html=1;rounded=0;exitX=0.5;exitY=1;exitDx=0;exitDy=0;entryX=0.5;entryY=0;entryDx=0;entryDy=0;" parent="1" source="TBOXvc80CKV6nfEF6dhi-17" target="TBOXvc80CKV6nfEF6dhi-52" edge="1">
          <mxGeometry relative="1" as="geometry">
            <mxPoint x="-750" y="350" as="sourcePoint" />
            <mxPoint x="-820" y="390" as="targetPoint" />
          </mxGeometry>
        </mxCell>
        <mxCell id="TBOXvc80CKV6nfEF6dhi-60" value="" style="endArrow=none;html=1;rounded=0;exitX=0;exitY=0.5;exitDx=0;exitDy=0;entryX=1;entryY=0.5;entryDx=0;entryDy=0;" parent="1" source="TBOXvc80CKV6nfEF6dhi-47" target="TBOXvc80CKV6nfEF6dhi-17" edge="1">
          <mxGeometry relative="1" as="geometry">
            <mxPoint x="-740" y="360" as="sourcePoint" />
            <mxPoint x="-810" y="400" as="targetPoint" />
          </mxGeometry>
        </mxCell>
        <mxCell id="TBOXvc80CKV6nfEF6dhi-62" value="" style="endArrow=none;html=1;rounded=0;exitX=0.5;exitY=1;exitDx=0;exitDy=0;entryX=0.5;entryY=0;entryDx=0;entryDy=0;" parent="1" source="TBOXvc80CKV6nfEF6dhi-45" target="TBOXvc80CKV6nfEF6dhi-17" edge="1">
          <mxGeometry relative="1" as="geometry">
            <mxPoint x="-720" y="380" as="sourcePoint" />
            <mxPoint x="-790" y="420" as="targetPoint" />
          </mxGeometry>
        </mxCell>
        <mxCell id="TBOXvc80CKV6nfEF6dhi-63" value="" style="endArrow=none;html=1;rounded=0;exitX=0.5;exitY=0;exitDx=0;exitDy=0;entryX=0.5;entryY=1;entryDx=0;entryDy=0;" parent="1" source="TBOXvc80CKV6nfEF6dhi-17" target="TBOXvc80CKV6nfEF6dhi-48" edge="1">
          <mxGeometry relative="1" as="geometry">
            <mxPoint x="-710" y="390" as="sourcePoint" />
            <mxPoint x="-780" y="430" as="targetPoint" />
          </mxGeometry>
        </mxCell>
        <mxCell id="TBOXvc80CKV6nfEF6dhi-74" value="" style="endArrow=none;html=1;rounded=0;entryX=0;entryY=0.5;entryDx=0;entryDy=0;exitX=1;exitY=0.5;exitDx=0;exitDy=0;" parent="1" source="E23f7wQ3UJA1HukhsZAp-2" target="TBOXvc80CKV6nfEF6dhi-10" edge="1">
          <mxGeometry relative="1" as="geometry">
            <mxPoint x="-41.32688278183423" y="276.38463841038043" as="sourcePoint" />
            <mxPoint x="-300" y="370" as="targetPoint" />
          </mxGeometry>
        </mxCell>
        <mxCell id="TBOXvc80CKV6nfEF6dhi-75" value="Color" style="ellipse;whiteSpace=wrap;html=1;align=center;" parent="1" vertex="1">
          <mxGeometry x="270" y="250" width="100" height="40" as="geometry" />
        </mxCell>
        <mxCell id="TBOXvc80CKV6nfEF6dhi-76" value="" style="endArrow=none;html=1;rounded=0;exitX=1;exitY=0.5;exitDx=0;exitDy=0;entryX=0;entryY=0.5;entryDx=0;entryDy=0;" parent="1" source="TBOXvc80CKV6nfEF6dhi-10" target="TBOXvc80CKV6nfEF6dhi-75" edge="1">
          <mxGeometry relative="1" as="geometry">
            <mxPoint x="-220" y="340" as="sourcePoint" />
            <mxPoint x="-290" y="380" as="targetPoint" />
          </mxGeometry>
        </mxCell>
        <mxCell id="TBOXvc80CKV6nfEF6dhi-77" value="Nombre" style="ellipse;whiteSpace=wrap;html=1;align=center;" parent="1" vertex="1">
          <mxGeometry x="10" y="240" width="100" height="40" as="geometry" />
        </mxCell>
        <mxCell id="TBOXvc80CKV6nfEF6dhi-78" value="Ancho" style="ellipse;whiteSpace=wrap;html=1;align=center;" parent="1" vertex="1">
          <mxGeometry x="150" y="240" width="100" height="40" as="geometry" />
        </mxCell>
        <mxCell id="TBOXvc80CKV6nfEF6dhi-79" value="Tipo_mueble" style="ellipse;whiteSpace=wrap;html=1;align=center;" parent="1" vertex="1">
          <mxGeometry x="10" y="400" width="100" height="40" as="geometry" />
        </mxCell>
        <mxCell id="TBOXvc80CKV6nfEF6dhi-80" value="Material" style="ellipse;whiteSpace=wrap;html=1;align=center;" parent="1" vertex="1">
          <mxGeometry x="150" y="400" width="100" height="40" as="geometry" />
        </mxCell>
        <mxCell id="TBOXvc80CKV6nfEF6dhi-81" value="" style="endArrow=none;html=1;rounded=0;exitX=0.5;exitY=0;exitDx=0;exitDy=0;entryX=0.5;entryY=1;entryDx=0;entryDy=0;" parent="1" source="TBOXvc80CKV6nfEF6dhi-79" target="TBOXvc80CKV6nfEF6dhi-10" edge="1">
          <mxGeometry relative="1" as="geometry">
            <mxPoint x="-240" y="350" as="sourcePoint" />
            <mxPoint x="-280" y="350" as="targetPoint" />
          </mxGeometry>
        </mxCell>
        <mxCell id="TBOXvc80CKV6nfEF6dhi-82" value="" style="endArrow=none;html=1;rounded=0;exitX=0.5;exitY=0;exitDx=0;exitDy=0;entryX=0.5;entryY=1;entryDx=0;entryDy=0;" parent="1" source="TBOXvc80CKV6nfEF6dhi-80" target="TBOXvc80CKV6nfEF6dhi-10" edge="1">
          <mxGeometry relative="1" as="geometry">
            <mxPoint x="-230" y="360" as="sourcePoint" />
            <mxPoint x="-270" y="360" as="targetPoint" />
          </mxGeometry>
        </mxCell>
        <mxCell id="TBOXvc80CKV6nfEF6dhi-83" value="" style="endArrow=none;html=1;rounded=0;exitX=0.5;exitY=0;exitDx=0;exitDy=0;entryX=0.5;entryY=1;entryDx=0;entryDy=0;" parent="1" source="TBOXvc80CKV6nfEF6dhi-10" target="TBOXvc80CKV6nfEF6dhi-77" edge="1">
          <mxGeometry relative="1" as="geometry">
            <mxPoint x="-220" y="370" as="sourcePoint" />
            <mxPoint x="-260" y="370" as="targetPoint" />
          </mxGeometry>
        </mxCell>
        <mxCell id="TBOXvc80CKV6nfEF6dhi-84" value="" style="endArrow=none;html=1;rounded=0;exitX=0.5;exitY=1;exitDx=0;exitDy=0;entryX=0.5;entryY=0;entryDx=0;entryDy=0;" parent="1" source="TBOXvc80CKV6nfEF6dhi-78" target="TBOXvc80CKV6nfEF6dhi-10" edge="1">
          <mxGeometry relative="1" as="geometry">
            <mxPoint x="-210" y="380" as="sourcePoint" />
            <mxPoint x="-250" y="380" as="targetPoint" />
          </mxGeometry>
        </mxCell>
        <mxCell id="TBOXvc80CKV6nfEF6dhi-86" value="" style="endArrow=none;html=1;rounded=0;exitX=0.5;exitY=1;exitDx=0;exitDy=0;entryX=0.5;entryY=0;entryDx=0;entryDy=0;" parent="1" source="E23f7wQ3UJA1HukhsZAp-7" target="TBOXvc80CKV6nfEF6dhi-37" edge="1">
          <mxGeometry relative="1" as="geometry">
            <mxPoint x="39.99999999999841" y="575" as="sourcePoint" />
            <mxPoint x="30" y="610" as="targetPoint" />
          </mxGeometry>
        </mxCell>
        <mxCell id="TBOXvc80CKV6nfEF6dhi-93" value="Fecha" style="ellipse;whiteSpace=wrap;html=1;align=center;" parent="1" vertex="1">
          <mxGeometry x="160" y="557.5" width="100" height="40" as="geometry" />
        </mxCell>
        <mxCell id="TBOXvc80CKV6nfEF6dhi-95" value="" style="endArrow=none;html=1;rounded=0;exitX=0.5;exitY=1;exitDx=0;exitDy=0;entryX=0.5;entryY=0;entryDx=0;entryDy=0;" parent="1" source="TBOXvc80CKV6nfEF6dhi-93" target="TBOXvc80CKV6nfEF6dhi-37" edge="1">
          <mxGeometry relative="1" as="geometry">
            <mxPoint x="-150" y="405" as="sourcePoint" />
            <mxPoint x="160" y="625" as="targetPoint" />
          </mxGeometry>
        </mxCell>
        <mxCell id="TBOXvc80CKV6nfEF6dhi-96" value="" style="endArrow=none;html=1;rounded=0;exitX=0.5;exitY=0;exitDx=0;exitDy=0;entryX=0.5;entryY=1;entryDx=0;entryDy=0;" parent="1" source="9bLzDCfXXZlXbpBvJnL8-12" target="TBOXvc80CKV6nfEF6dhi-37" edge="1">
          <mxGeometry relative="1" as="geometry">
            <mxPoint x="60" y="695" as="sourcePoint" />
            <mxPoint x="-180" y="415" as="targetPoint" />
          </mxGeometry>
        </mxCell>
        <mxCell id="TBOXvc80CKV6nfEF6dhi-97" value="Id_empleado" style="ellipse;whiteSpace=wrap;html=1;align=center;fontStyle=4;" parent="1" vertex="1">
          <mxGeometry x="620" y="557.5" width="100" height="40" as="geometry" />
        </mxCell>
        <mxCell id="TBOXvc80CKV6nfEF6dhi-98" value="" style="endArrow=none;html=1;rounded=0;exitX=0;exitY=0.5;exitDx=0;exitDy=0;entryX=1;entryY=0.5;entryDx=0;entryDy=0;" parent="1" source="TBOXvc80CKV6nfEF6dhi-97" target="TBOXvc80CKV6nfEF6dhi-18" edge="1">
          <mxGeometry relative="1" as="geometry">
            <mxPoint x="-130" y="425" as="sourcePoint" />
            <mxPoint x="-170" y="425" as="targetPoint" />
          </mxGeometry>
        </mxCell>
        <mxCell id="TBOXvc80CKV6nfEF6dhi-99" value="Nombre" style="ellipse;whiteSpace=wrap;html=1;align=center;" parent="1" vertex="1">
          <mxGeometry x="380" y="535" width="100" height="40" as="geometry" />
        </mxCell>
        <mxCell id="TBOXvc80CKV6nfEF6dhi-100" value="Email" style="ellipse;whiteSpace=wrap;html=1;align=center;" parent="1" vertex="1">
          <mxGeometry x="380" y="695" width="100" height="40" as="geometry" />
        </mxCell>
        <mxCell id="TBOXvc80CKV6nfEF6dhi-101" value="Tipo_contrato" style="ellipse;whiteSpace=wrap;html=1;align=center;" parent="1" vertex="1">
          <mxGeometry x="520" y="535" width="100" height="40" as="geometry" />
        </mxCell>
        <mxCell id="TBOXvc80CKV6nfEF6dhi-105" value="Telefono" style="ellipse;shape=doubleEllipse;margin=3;whiteSpace=wrap;html=1;align=center;" parent="1" vertex="1">
          <mxGeometry x="520" y="695" width="100" height="40" as="geometry" />
        </mxCell>
        <mxCell id="TBOXvc80CKV6nfEF6dhi-106" value="" style="endArrow=none;html=1;rounded=0;exitX=0.5;exitY=1;exitDx=0;exitDy=0;entryX=0.5;entryY=0;entryDx=0;entryDy=0;" parent="1" source="TBOXvc80CKV6nfEF6dhi-99" target="TBOXvc80CKV6nfEF6dhi-18" edge="1">
          <mxGeometry relative="1" as="geometry">
            <mxPoint x="-120" y="435" as="sourcePoint" />
            <mxPoint x="-160" y="435" as="targetPoint" />
          </mxGeometry>
        </mxCell>
        <mxCell id="TBOXvc80CKV6nfEF6dhi-107" value="" style="endArrow=none;html=1;rounded=0;exitX=0.5;exitY=1;exitDx=0;exitDy=0;entryX=0.5;entryY=0;entryDx=0;entryDy=0;" parent="1" source="TBOXvc80CKV6nfEF6dhi-101" target="TBOXvc80CKV6nfEF6dhi-18" edge="1">
          <mxGeometry relative="1" as="geometry">
            <mxPoint x="-110" y="445" as="sourcePoint" />
            <mxPoint x="-150" y="445" as="targetPoint" />
          </mxGeometry>
        </mxCell>
        <mxCell id="TBOXvc80CKV6nfEF6dhi-108" value="" style="endArrow=none;html=1;rounded=0;exitX=0.5;exitY=0;exitDx=0;exitDy=0;entryX=0.5;entryY=1;entryDx=0;entryDy=0;" parent="1" source="TBOXvc80CKV6nfEF6dhi-100" target="TBOXvc80CKV6nfEF6dhi-18" edge="1">
          <mxGeometry relative="1" as="geometry">
            <mxPoint x="-100" y="455" as="sourcePoint" />
            <mxPoint x="-140" y="455" as="targetPoint" />
          </mxGeometry>
        </mxCell>
        <mxCell id="TBOXvc80CKV6nfEF6dhi-109" value="" style="endArrow=none;html=1;rounded=0;exitX=0.5;exitY=1;exitDx=0;exitDy=0;entryX=0.5;entryY=0;entryDx=0;entryDy=0;" parent="1" source="TBOXvc80CKV6nfEF6dhi-18" target="TBOXvc80CKV6nfEF6dhi-105" edge="1">
          <mxGeometry relative="1" as="geometry">
            <mxPoint x="-90" y="465" as="sourcePoint" />
            <mxPoint x="-130" y="465" as="targetPoint" />
          </mxGeometry>
        </mxCell>
        <mxCell id="TBOXvc80CKV6nfEF6dhi-110" value="" style="endArrow=none;html=1;rounded=0;entryX=1;entryY=0.5;entryDx=0;entryDy=0;exitX=0.5;exitY=0;exitDx=0;exitDy=0;" parent="1" source="TBOXvc80CKV6nfEF6dhi-111" target="TBOXvc80CKV6nfEF6dhi-16" edge="1">
          <mxGeometry relative="1" as="geometry">
            <mxPoint x="-90" y="477.5" as="sourcePoint" />
            <mxPoint x="-130" y="477.5" as="targetPoint" />
          </mxGeometry>
        </mxCell>
        <mxCell id="TBOXvc80CKV6nfEF6dhi-111" value="Id_cliente" style="ellipse;whiteSpace=wrap;html=1;align=center;fontStyle=4;" parent="1" vertex="1">
          <mxGeometry x="230" y="887.5" width="100" height="40" as="geometry" />
        </mxCell>
        <mxCell id="TBOXvc80CKV6nfEF6dhi-112" value="Nombre" style="ellipse;whiteSpace=wrap;html=1;align=center;" parent="1" vertex="1">
          <mxGeometry x="230" y="977.5" width="100" height="40" as="geometry" />
        </mxCell>
        <mxCell id="TBOXvc80CKV6nfEF6dhi-113" value="" style="endArrow=none;html=1;rounded=0;exitX=1;exitY=0.5;exitDx=0;exitDy=0;entryX=0;entryY=0.5;entryDx=0;entryDy=0;" parent="1" source="TBOXvc80CKV6nfEF6dhi-16" target="TBOXvc80CKV6nfEF6dhi-112" edge="1">
          <mxGeometry relative="1" as="geometry">
            <mxPoint x="-80" y="487.5" as="sourcePoint" />
            <mxPoint x="-120" y="487.5" as="targetPoint" />
          </mxGeometry>
        </mxCell>
        <mxCell id="TBOXvc80CKV6nfEF6dhi-114" value="Email" style="ellipse;whiteSpace=wrap;html=1;align=center;" parent="1" vertex="1">
          <mxGeometry x="-70" y="977.5" width="100" height="40" as="geometry" />
        </mxCell>
        <mxCell id="TBOXvc80CKV6nfEF6dhi-116" value="" style="endArrow=none;html=1;rounded=0;exitX=0;exitY=0.5;exitDx=0;exitDy=0;entryX=1;entryY=0.5;entryDx=0;entryDy=0;" parent="1" source="TBOXvc80CKV6nfEF6dhi-16" target="TBOXvc80CKV6nfEF6dhi-114" edge="1">
          <mxGeometry relative="1" as="geometry">
            <mxPoint x="-70" y="497.5" as="sourcePoint" />
            <mxPoint x="-110" y="497.5" as="targetPoint" />
          </mxGeometry>
        </mxCell>
        <mxCell id="TBOXvc80CKV6nfEF6dhi-118" value="Telefono" style="ellipse;shape=doubleEllipse;margin=3;whiteSpace=wrap;html=1;align=center;" parent="1" vertex="1">
          <mxGeometry x="-70" y="897.5" width="100" height="40" as="geometry" />
        </mxCell>
        <mxCell id="TBOXvc80CKV6nfEF6dhi-119" value="" style="endArrow=none;html=1;rounded=0;exitX=1;exitY=0.5;exitDx=0;exitDy=0;entryX=0;entryY=0.5;entryDx=0;entryDy=0;" parent="1" source="TBOXvc80CKV6nfEF6dhi-118" target="TBOXvc80CKV6nfEF6dhi-16" edge="1">
          <mxGeometry relative="1" as="geometry">
            <mxPoint x="-50" y="517.5" as="sourcePoint" />
            <mxPoint x="-90" y="517.5" as="targetPoint" />
          </mxGeometry>
        </mxCell>
        <mxCell id="9bLzDCfXXZlXbpBvJnL8-6" value="" style="endArrow=none;html=1;rounded=0;exitX=1;exitY=0.5;exitDx=0;exitDy=0;entryX=0;entryY=0.5;entryDx=0;entryDy=0;" parent="1" source="TBOXvc80CKV6nfEF6dhi-17" target="TBOXvc80CKV6nfEF6dhi-49" edge="1">
          <mxGeometry relative="1" as="geometry">
            <mxPoint x="-400" y="170" as="sourcePoint" />
            <mxPoint x="-240" y="170" as="targetPoint" />
          </mxGeometry>
        </mxCell>
        <mxCell id="9bLzDCfXXZlXbpBvJnL8-7" value="" style="endArrow=none;html=1;rounded=0;exitX=0.5;exitY=0;exitDx=0;exitDy=0;entryX=0.5;entryY=1;entryDx=0;entryDy=0;" parent="1" source="TBOXvc80CKV6nfEF6dhi-51" target="TBOXvc80CKV6nfEF6dhi-17" edge="1">
          <mxGeometry relative="1" as="geometry">
            <mxPoint x="-400" y="170" as="sourcePoint" />
            <mxPoint x="-520" y="180" as="targetPoint" />
          </mxGeometry>
        </mxCell>
        <mxCell id="9bLzDCfXXZlXbpBvJnL8-12" value="Total" style="ellipse;whiteSpace=wrap;html=1;align=center;dashed=1;" parent="1" vertex="1">
          <mxGeometry x="160" y="680" width="100" height="40" as="geometry" />
        </mxCell>
        <mxCell id="9bLzDCfXXZlXbpBvJnL8-28" value="" style="endArrow=none;html=1;rounded=0;entryX=0.5;entryY=1;entryDx=0;entryDy=0;" parent="1" source="TBOXvc80CKV6nfEF6dhi-21" target="TBOXvc80CKV6nfEF6dhi-37" edge="1">
          <mxGeometry relative="1" as="geometry">
            <mxPoint x="20" y="745" as="sourcePoint" />
            <mxPoint x="140" y="655" as="targetPoint" />
          </mxGeometry>
        </mxCell>
        <mxCell id="9bLzDCfXXZlXbpBvJnL8-30" value="" style="endArrow=none;html=1;rounded=0;entryX=0.49;entryY=1;entryDx=0;entryDy=0;entryPerimeter=0;" parent="1" target="TBOXvc80CKV6nfEF6dhi-21" edge="1">
          <mxGeometry relative="1" as="geometry">
            <mxPoint x="129.41000000000003" y="947.5" as="sourcePoint" />
            <mxPoint x="129.41000000000003" y="837.5" as="targetPoint" />
          </mxGeometry>
        </mxCell>
        <mxCell id="9bLzDCfXXZlXbpBvJnL8-31" value="" style="endArrow=none;html=1;rounded=0;entryX=0.5;entryY=1;entryDx=0;entryDy=0;exitX=0.5;exitY=0;exitDx=0;exitDy=0;" parent="1" source="TBOXvc80CKV6nfEF6dhi-37" target="TBOXvc80CKV6nfEF6dhi-22" edge="1">
          <mxGeometry relative="1" as="geometry">
            <mxPoint x="160" y="785" as="sourcePoint" />
            <mxPoint x="300" y="535" as="targetPoint" />
          </mxGeometry>
        </mxCell>
        <mxCell id="9bLzDCfXXZlXbpBvJnL8-32" value="" style="endArrow=none;html=1;rounded=0;entryX=0.5;entryY=1;entryDx=0;entryDy=0;exitX=0.5;exitY=0;exitDx=0;exitDy=0;" parent="1" source="TBOXvc80CKV6nfEF6dhi-22" target="TBOXvc80CKV6nfEF6dhi-10" edge="1">
          <mxGeometry relative="1" as="geometry">
            <mxPoint y="790" as="sourcePoint" />
            <mxPoint y="680" as="targetPoint" />
          </mxGeometry>
        </mxCell>
        <mxCell id="9bLzDCfXXZlXbpBvJnL8-33" value="Rol" style="ellipse;whiteSpace=wrap;html=1;align=center;" parent="1" vertex="1">
          <mxGeometry x="620" y="680" width="100" height="40" as="geometry" />
        </mxCell>
        <mxCell id="9bLzDCfXXZlXbpBvJnL8-101" value="" style="endArrow=none;html=1;rounded=0;entryX=0;entryY=0.5;entryDx=0;entryDy=0;exitX=1;exitY=0.5;exitDx=0;exitDy=0;" parent="1" source="TBOXvc80CKV6nfEF6dhi-18" target="9bLzDCfXXZlXbpBvJnL8-33" edge="1">
          <mxGeometry relative="1" as="geometry">
            <mxPoint x="20" y="795" as="sourcePoint" />
            <mxPoint x="180" y="795" as="targetPoint" />
          </mxGeometry>
        </mxCell>
        <mxCell id="TuO1zeEdH__ycaznmqz_-1" value="Precio" style="ellipse;whiteSpace=wrap;html=1;align=center;" parent="1" vertex="1">
          <mxGeometry x="270" y="390" width="100" height="40" as="geometry" />
        </mxCell>
        <mxCell id="TuO1zeEdH__ycaznmqz_-4" value="" style="endArrow=none;html=1;rounded=0;exitX=1;exitY=0.5;exitDx=0;exitDy=0;entryX=0;entryY=0.5;entryDx=0;entryDy=0;" parent="1" source="TBOXvc80CKV6nfEF6dhi-10" target="TuO1zeEdH__ycaznmqz_-1" edge="1">
          <mxGeometry relative="1" as="geometry">
            <mxPoint x="200" y="350" as="sourcePoint" />
            <mxPoint x="280" y="310" as="targetPoint" />
          </mxGeometry>
        </mxCell>
        <mxCell id="TuO1zeEdH__ycaznmqz_-5" value="" style="endArrow=none;html=1;rounded=0;exitX=1;exitY=0.5;exitDx=0;exitDy=0;entryX=0;entryY=0.5;entryDx=0;entryDy=0;" parent="1" source="TuO1zeEdH__ycaznmqz_-6" target="TBOXvc80CKV6nfEF6dhi-10" edge="1">
          <mxGeometry relative="1" as="geometry">
            <mxPoint x="-39.99999999998954" y="380" as="sourcePoint" />
            <mxPoint y="380" as="targetPoint" />
          </mxGeometry>
        </mxCell>
        <mxCell id="TuO1zeEdH__ycaznmqz_-6" value="Garantia" style="ellipse;whiteSpace=wrap;html=1;align=center;" parent="1" vertex="1">
          <mxGeometry x="-213" y="370" width="100" height="40" as="geometry" />
        </mxCell>
        <mxCell id="TuO1zeEdH__ycaznmqz_-7" value="Largo" style="ellipse;whiteSpace=wrap;html=1;align=center;" parent="1" vertex="1">
          <mxGeometry x="-213" y="270" width="100" height="40" as="geometry" />
        </mxCell>
        <mxCell id="TuO1zeEdH__ycaznmqz_-8" value="" style="endArrow=none;html=1;rounded=0;exitX=0;exitY=0.5;exitDx=0;exitDy=0;entryX=1;entryY=0.5;entryDx=0;entryDy=0;" parent="1" source="TBOXvc80CKV6nfEF6dhi-10" target="TuO1zeEdH__ycaznmqz_-7" edge="1">
          <mxGeometry relative="1" as="geometry">
            <mxPoint x="200" y="350" as="sourcePoint" />
            <mxPoint x="290" y="320" as="targetPoint" />
          </mxGeometry>
        </mxCell>
        <mxCell id="TuO1zeEdH__ycaznmqz_-9" value="Alto" style="ellipse;whiteSpace=wrap;html=1;align=center;" parent="1" vertex="1">
          <mxGeometry x="370" y="270" width="100" height="40" as="geometry" />
        </mxCell>
        <mxCell id="TuO1zeEdH__ycaznmqz_-10" value="" style="endArrow=none;html=1;rounded=0;exitX=1;exitY=0.5;exitDx=0;exitDy=0;entryX=0;entryY=0.5;entryDx=0;entryDy=0;" parent="1" source="TBOXvc80CKV6nfEF6dhi-10" target="TuO1zeEdH__ycaznmqz_-9" edge="1">
          <mxGeometry relative="1" as="geometry">
            <mxPoint x="210" y="360" as="sourcePoint" />
            <mxPoint x="300" y="330" as="targetPoint" />
          </mxGeometry>
        </mxCell>
        <mxCell id="TuO1zeEdH__ycaznmqz_-17" value="Cantidad" style="ellipse;whiteSpace=wrap;html=1;align=center;" parent="1" vertex="1">
          <mxGeometry x="370" y="370" width="100" height="40" as="geometry" />
        </mxCell>
        <mxCell id="TuO1zeEdH__ycaznmqz_-18" value="" style="endArrow=none;html=1;rounded=0;exitX=1;exitY=0.5;exitDx=0;exitDy=0;entryX=0;entryY=0.5;entryDx=0;entryDy=0;" parent="1" source="TBOXvc80CKV6nfEF6dhi-10" target="TuO1zeEdH__ycaznmqz_-17" edge="1">
          <mxGeometry relative="1" as="geometry">
            <mxPoint x="200" y="350" as="sourcePoint" />
            <mxPoint x="380" y="310" as="targetPoint" />
          </mxGeometry>
        </mxCell>
        <mxCell id="TuO1zeEdH__ycaznmqz_-25" value="" style="group" parent="1" vertex="1" connectable="0">
          <mxGeometry x="2750" y="242.54000000000002" width="160" height="190" as="geometry" />
        </mxCell>
        <mxCell id="TuO1zeEdH__ycaznmqz_-23" value="Id_proveedoresÂ " style="swimlane;fontStyle=0;childLayout=stackLayout;horizontal=1;startSize=20;fillColor=#ffffff;horizontalStack=0;resizeParent=1;resizeParentMax=0;resizeLast=0;collapsible=0;marginBottom=0;swimlaneFillColor=#ffffff;movable=1;resizable=1;rotatable=1;deletable=1;editable=1;locked=0;connectable=1;" parent="TuO1zeEdH__ycaznmqz_-25" vertex="1">
          <mxGeometry y="30" width="160" height="160" as="geometry" />
        </mxCell>
        <mxCell id="TuO1zeEdH__ycaznmqz_-26" value="Nombre&lt;br&gt;Direccion&lt;div&gt;Responsable&lt;br&gt;Telefono&lt;br&gt;Estado&lt;/div&gt;&lt;div&gt;Fecha_inicio&lt;br&gt;Fecha_terminacion&lt;br&gt;Id_tipoMueble&lt;br&gt;&lt;/div&gt;" style="text;html=1;align=center;verticalAlign=middle;whiteSpace=wrap;rounded=0;" parent="TuO1zeEdH__ycaznmqz_-23" vertex="1">
          <mxGeometry y="20" width="160" height="140" as="geometry" />
        </mxCell>
        <mxCell id="TuO1zeEdH__ycaznmqz_-24" value="Proveedores&amp;nbsp;" style="text;html=1;align=center;verticalAlign=middle;whiteSpace=wrap;rounded=0;movable=1;resizable=1;rotatable=1;deletable=1;editable=1;locked=0;connectable=1;" parent="TuO1zeEdH__ycaznmqz_-25" vertex="1">
          <mxGeometry width="90" height="30" as="geometry" />
        </mxCell>
        <mxCell id="TuO1zeEdH__ycaznmqz_-35" value="" style="group" parent="1" vertex="1" connectable="0">
          <mxGeometry x="3230" y="242.54000000000002" width="160" height="280" as="geometry" />
        </mxCell>
        <mxCell id="TuO1zeEdH__ycaznmqz_-36" value="id_mueble" style="swimlane;fontStyle=0;childLayout=stackLayout;horizontal=1;startSize=40;fillColor=#ffffff;horizontalStack=0;resizeParent=1;resizeParentMax=0;resizeLast=0;collapsible=0;marginBottom=0;swimlaneFillColor=#ffffff;movable=1;resizable=1;rotatable=1;deletable=1;editable=1;locked=0;connectable=1;" parent="TuO1zeEdH__ycaznmqz_-35" vertex="1">
          <mxGeometry y="30" width="160" height="250" as="geometry" />
        </mxCell>
        <mxCell id="TuO1zeEdH__ycaznmqz_-37" value="Nombre&lt;br&gt;Cantidad&lt;br&gt;Alto&lt;br&gt;Largo&lt;br&gt;Ancho&lt;br&gt;Imagen&lt;br&gt;Precio&lt;div&gt;Garantia&lt;/div&gt;&lt;div&gt;Estado&lt;/div&gt;&lt;div&gt;Fecha_terminacion&lt;br&gt;Id_material&lt;br&gt;Id_color&lt;br&gt;Id_tipoMueble&lt;/div&gt;" style="text;html=1;align=center;verticalAlign=middle;whiteSpace=wrap;rounded=0;" parent="TuO1zeEdH__ycaznmqz_-36" vertex="1">
          <mxGeometry y="40" width="160" height="210" as="geometry" />
        </mxCell>
        <mxCell id="TuO1zeEdH__ycaznmqz_-38" value="Mueble" style="text;html=1;align=center;verticalAlign=middle;whiteSpace=wrap;rounded=0;movable=1;resizable=1;rotatable=1;deletable=1;editable=1;locked=0;connectable=1;" parent="TuO1zeEdH__ycaznmqz_-35" vertex="1">
          <mxGeometry width="90" height="30" as="geometry" />
        </mxCell>
        <mxCell id="TuO1zeEdH__ycaznmqz_-39" value="" style="group" parent="1" vertex="1" connectable="0">
          <mxGeometry x="3780" y="62.540000000000006" width="160" height="150" as="geometry" />
        </mxCell>
        <mxCell id="TuO1zeEdH__ycaznmqz_-40" value="Id_color" style="swimlane;fontStyle=0;childLayout=stackLayout;horizontal=1;startSize=40;fillColor=#ffffff;horizontalStack=0;resizeParent=1;resizeParentMax=0;resizeLast=0;collapsible=0;marginBottom=0;swimlaneFillColor=#ffffff;movable=1;resizable=1;rotatable=1;deletable=1;editable=1;locked=0;connectable=1;" parent="TuO1zeEdH__ycaznmqz_-39" vertex="1">
          <mxGeometry y="30" width="160" height="80" as="geometry" />
        </mxCell>
        <mxCell id="TuO1zeEdH__ycaznmqz_-41" value="Nombre" style="text;html=1;align=center;verticalAlign=middle;whiteSpace=wrap;rounded=0;" parent="TuO1zeEdH__ycaznmqz_-40" vertex="1">
          <mxGeometry y="40" width="160" height="40" as="geometry" />
        </mxCell>
        <mxCell id="TuO1zeEdH__ycaznmqz_-42" value="Color" style="text;html=1;align=center;verticalAlign=middle;whiteSpace=wrap;rounded=0;movable=1;resizable=1;rotatable=1;deletable=1;editable=1;locked=0;connectable=1;" parent="TuO1zeEdH__ycaznmqz_-39" vertex="1">
          <mxGeometry width="90" height="30" as="geometry" />
        </mxCell>
        <mxCell id="TuO1zeEdH__ycaznmqz_-43" value="" style="group" parent="1" vertex="1" connectable="0">
          <mxGeometry x="3600" y="167.54000000000002" width="160" height="150" as="geometry" />
        </mxCell>
        <mxCell id="TuO1zeEdH__ycaznmqz_-44" value="Id_material" style="swimlane;fontStyle=0;childLayout=stackLayout;horizontal=1;startSize=40;fillColor=#ffffff;horizontalStack=0;resizeParent=1;resizeParentMax=0;resizeLast=0;collapsible=0;marginBottom=0;swimlaneFillColor=#ffffff;movable=1;resizable=1;rotatable=1;deletable=1;editable=1;locked=0;connectable=1;" parent="TuO1zeEdH__ycaznmqz_-43" vertex="1">
          <mxGeometry y="30" width="160" height="80" as="geometry" />
        </mxCell>
        <mxCell id="TuO1zeEdH__ycaznmqz_-45" value="Nombre" style="text;html=1;align=center;verticalAlign=middle;whiteSpace=wrap;rounded=0;" parent="TuO1zeEdH__ycaznmqz_-44" vertex="1">
          <mxGeometry y="40" width="160" height="40" as="geometry" />
        </mxCell>
        <mxCell id="TuO1zeEdH__ycaznmqz_-46" value="Material" style="text;html=1;align=center;verticalAlign=middle;whiteSpace=wrap;rounded=0;movable=1;resizable=1;rotatable=1;deletable=1;editable=1;locked=0;connectable=1;" parent="TuO1zeEdH__ycaznmqz_-43" vertex="1">
          <mxGeometry width="90" height="30" as="geometry" />
        </mxCell>
        <mxCell id="TuO1zeEdH__ycaznmqz_-55" value="" style="group" parent="1" vertex="1" connectable="0">
          <mxGeometry x="3448" y="492.54" width="160" height="150" as="geometry" />
        </mxCell>
        <mxCell id="TuO1zeEdH__ycaznmqz_-56" value="Id_venta&#xa;Id_mueble" style="swimlane;fontStyle=0;childLayout=stackLayout;horizontal=1;startSize=50;fillColor=#ffffff;horizontalStack=0;resizeParent=1;resizeParentMax=0;resizeLast=0;collapsible=0;marginBottom=0;swimlaneFillColor=#ffffff;movable=1;resizable=1;rotatable=1;deletable=1;editable=1;locked=0;connectable=1;" parent="TuO1zeEdH__ycaznmqz_-55" vertex="1">
          <mxGeometry y="30" width="160" height="100" as="geometry" />
        </mxCell>
        <mxCell id="TuO1zeEdH__ycaznmqz_-57" value="Cantidad" style="text;html=1;align=center;verticalAlign=middle;whiteSpace=wrap;rounded=0;" parent="TuO1zeEdH__ycaznmqz_-56" vertex="1">
          <mxGeometry y="50" width="160" height="50" as="geometry" />
        </mxCell>
        <mxCell id="TuO1zeEdH__ycaznmqz_-58" value="Registrar" style="text;html=1;align=center;verticalAlign=middle;whiteSpace=wrap;rounded=0;movable=1;resizable=1;rotatable=1;deletable=1;editable=1;locked=0;connectable=1;" parent="TuO1zeEdH__ycaznmqz_-55" vertex="1">
          <mxGeometry width="90" height="30" as="geometry" />
        </mxCell>
        <mxCell id="TuO1zeEdH__ycaznmqz_-59" value="" style="group" parent="1" vertex="1" connectable="0">
          <mxGeometry x="3260" y="642.54" width="160" height="150" as="geometry" />
        </mxCell>
        <mxCell id="TuO1zeEdH__ycaznmqz_-60" value="Id_venta" style="swimlane;fontStyle=0;childLayout=stackLayout;horizontal=1;startSize=40;fillColor=#ffffff;horizontalStack=0;resizeParent=1;resizeParentMax=0;resizeLast=0;collapsible=0;marginBottom=0;swimlaneFillColor=#ffffff;movable=1;resizable=1;rotatable=1;deletable=1;editable=1;locked=0;connectable=1;" parent="TuO1zeEdH__ycaznmqz_-59" vertex="1">
          <mxGeometry y="30" width="160" height="120" as="geometry" />
        </mxCell>
        <mxCell id="TuO1zeEdH__ycaznmqz_-61" value="Fecha&lt;br&gt;Total&lt;br&gt;Id_metodoPago&lt;br&gt;Id_empleado&lt;br&gt;Id_cliente" style="text;html=1;align=center;verticalAlign=middle;whiteSpace=wrap;rounded=0;" parent="TuO1zeEdH__ycaznmqz_-60" vertex="1">
          <mxGeometry y="40" width="160" height="80" as="geometry" />
        </mxCell>
        <mxCell id="TuO1zeEdH__ycaznmqz_-62" value="Venta" style="text;html=1;align=center;verticalAlign=middle;whiteSpace=wrap;rounded=0;movable=1;resizable=1;rotatable=1;deletable=1;editable=1;locked=0;connectable=1;" parent="TuO1zeEdH__ycaznmqz_-59" vertex="1">
          <mxGeometry width="90" height="30" as="geometry" />
        </mxCell>
        <mxCell id="TuO1zeEdH__ycaznmqz_-63" value="" style="group" parent="1" vertex="1" connectable="0">
          <mxGeometry x="3020" y="527.54" width="160" height="200" as="geometry" />
        </mxCell>
        <mxCell id="TuO1zeEdH__ycaznmqz_-64" value="Id_empleado" style="swimlane;fontStyle=0;childLayout=stackLayout;horizontal=1;startSize=40;fillColor=#ffffff;horizontalStack=0;resizeParent=1;resizeParentMax=0;resizeLast=0;collapsible=0;marginBottom=0;swimlaneFillColor=#ffffff;movable=1;resizable=1;rotatable=1;deletable=1;editable=1;locked=0;connectable=1;" parent="TuO1zeEdH__ycaznmqz_-63" vertex="1">
          <mxGeometry y="30" width="160" height="170" as="geometry" />
        </mxCell>
        <mxCell id="TuO1zeEdH__ycaznmqz_-65" value="Nombre&lt;br&gt;TelÃ©fono&lt;br&gt;Email&lt;div&gt;Sueldo&lt;br&gt;&lt;div&gt;Fecha_nac&lt;br&gt;Fecha_inicio&lt;br&gt;Fecha_terminacion&lt;br&gt;Id_tipoContrato&lt;br&gt;Id_rol&lt;/div&gt;&lt;/div&gt;" style="text;html=1;align=center;verticalAlign=middle;whiteSpace=wrap;rounded=0;" parent="TuO1zeEdH__ycaznmqz_-64" vertex="1">
          <mxGeometry y="40" width="160" height="130" as="geometry" />
        </mxCell>
        <mxCell id="TuO1zeEdH__ycaznmqz_-66" value="Empleado" style="text;html=1;align=center;verticalAlign=middle;whiteSpace=wrap;rounded=0;movable=1;resizable=1;rotatable=1;deletable=1;editable=1;locked=0;connectable=1;" parent="TuO1zeEdH__ycaznmqz_-63" vertex="1">
          <mxGeometry width="90" height="30" as="geometry" />
        </mxCell>
        <mxCell id="TuO1zeEdH__ycaznmqz_-67" value="" style="group" parent="1" vertex="1" connectable="0">
          <mxGeometry x="2760" y="472.54" width="160" height="150" as="geometry" />
        </mxCell>
        <mxCell id="TuO1zeEdH__ycaznmqz_-68" value="id_rol" style="swimlane;fontStyle=0;childLayout=stackLayout;horizontal=1;startSize=40;fillColor=#ffffff;horizontalStack=0;resizeParent=1;resizeParentMax=0;resizeLast=0;collapsible=0;marginBottom=0;swimlaneFillColor=#ffffff;movable=1;resizable=1;rotatable=1;deletable=1;editable=1;locked=0;connectable=1;" parent="TuO1zeEdH__ycaznmqz_-67" vertex="1">
          <mxGeometry y="30" width="160" height="80" as="geometry" />
        </mxCell>
        <mxCell id="TuO1zeEdH__ycaznmqz_-69" value="Nombre" style="text;html=1;align=center;verticalAlign=middle;whiteSpace=wrap;rounded=0;" parent="TuO1zeEdH__ycaznmqz_-68" vertex="1">
          <mxGeometry y="40" width="160" height="40" as="geometry" />
        </mxCell>
        <mxCell id="TuO1zeEdH__ycaznmqz_-70" value="Rol" style="text;html=1;align=center;verticalAlign=middle;whiteSpace=wrap;rounded=0;movable=1;resizable=1;rotatable=1;deletable=1;editable=1;locked=0;connectable=1;" parent="TuO1zeEdH__ycaznmqz_-67" vertex="1">
          <mxGeometry width="90" height="30" as="geometry" />
        </mxCell>
        <mxCell id="TuO1zeEdH__ycaznmqz_-71" value="" style="group" parent="1" vertex="1" connectable="0">
          <mxGeometry x="3020" y="732.54" width="160" height="210" as="geometry" />
        </mxCell>
        <mxCell id="TuO1zeEdH__ycaznmqz_-72" value="Id_cliente" style="swimlane;fontStyle=0;childLayout=stackLayout;horizontal=1;startSize=40;fillColor=#ffffff;horizontalStack=0;resizeParent=1;resizeParentMax=0;resizeLast=0;collapsible=0;marginBottom=0;swimlaneFillColor=#ffffff;movable=1;resizable=1;rotatable=1;deletable=1;editable=1;locked=0;connectable=1;" parent="TuO1zeEdH__ycaznmqz_-71" vertex="1">
          <mxGeometry y="30" width="160" height="160" as="geometry" />
        </mxCell>
        <mxCell id="TuO1zeEdH__ycaznmqz_-73" value="Nombre&lt;br&gt;DirecciÃ³n&lt;br&gt;TelÃ©fono&lt;br&gt;Email&lt;br&gt;Estado&lt;div&gt;Fecha_inicio&lt;br&gt;Fecha_terminacion&lt;/div&gt;" style="text;html=1;align=center;verticalAlign=middle;whiteSpace=wrap;rounded=0;" parent="TuO1zeEdH__ycaznmqz_-72" vertex="1">
          <mxGeometry y="40" width="160" height="120" as="geometry" />
        </mxCell>
        <mxCell id="TuO1zeEdH__ycaznmqz_-74" value="Cliente" style="text;html=1;align=center;verticalAlign=middle;whiteSpace=wrap;rounded=0;movable=1;resizable=1;rotatable=1;deletable=1;editable=1;locked=0;connectable=1;" parent="TuO1zeEdH__ycaznmqz_-71" vertex="1">
          <mxGeometry width="90" height="30" as="geometry" />
        </mxCell>
        <mxCell id="TuO1zeEdH__ycaznmqz_-75" value="" style="group" parent="1" vertex="1" connectable="0">
          <mxGeometry x="2760" y="607.54" width="160" height="150" as="geometry" />
        </mxCell>
        <mxCell id="TuO1zeEdH__ycaznmqz_-76" value="Id_tipoContrato" style="swimlane;fontStyle=0;childLayout=stackLayout;horizontal=1;startSize=40;fillColor=#ffffff;horizontalStack=0;resizeParent=1;resizeParentMax=0;resizeLast=0;collapsible=0;marginBottom=0;swimlaneFillColor=#ffffff;movable=1;resizable=1;rotatable=1;deletable=1;editable=1;locked=0;connectable=1;" parent="TuO1zeEdH__ycaznmqz_-75" vertex="1">
          <mxGeometry y="30" width="160" height="90" as="geometry" />
        </mxCell>
        <mxCell id="TuO1zeEdH__ycaznmqz_-77" value="Nombre" style="text;html=1;align=center;verticalAlign=middle;whiteSpace=wrap;rounded=0;" parent="TuO1zeEdH__ycaznmqz_-76" vertex="1">
          <mxGeometry y="40" width="160" height="50" as="geometry" />
        </mxCell>
        <mxCell id="TuO1zeEdH__ycaznmqz_-78" value="Tipo_Contrato" style="text;html=1;align=center;verticalAlign=middle;whiteSpace=wrap;rounded=0;movable=1;resizable=1;rotatable=1;deletable=1;editable=1;locked=0;connectable=1;" parent="TuO1zeEdH__ycaznmqz_-75" vertex="1">
          <mxGeometry width="90" height="30" as="geometry" />
        </mxCell>
        <mxCell id="TuO1zeEdH__ycaznmqz_-79" style="edgeStyle=orthogonalEdgeStyle;rounded=0;orthogonalLoop=1;jettySize=auto;html=1;exitX=0;exitY=0.25;exitDx=0;exitDy=0;entryX=1;entryY=0.25;entryDx=0;entryDy=0;" parent="1" source="TuO1zeEdH__ycaznmqz_-65" target="TuO1zeEdH__ycaznmqz_-68" edge="1">
          <mxGeometry relative="1" as="geometry" />
        </mxCell>
        <mxCell id="TuO1zeEdH__ycaznmqz_-80" style="edgeStyle=orthogonalEdgeStyle;rounded=0;orthogonalLoop=1;jettySize=auto;html=1;exitX=0;exitY=0.25;exitDx=0;exitDy=0;entryX=1;entryY=0.25;entryDx=0;entryDy=0;" parent="1" source="TuO1zeEdH__ycaznmqz_-65" target="TuO1zeEdH__ycaznmqz_-76" edge="1">
          <mxGeometry relative="1" as="geometry" />
        </mxCell>
        <mxCell id="TuO1zeEdH__ycaznmqz_-81" style="edgeStyle=orthogonalEdgeStyle;rounded=0;orthogonalLoop=1;jettySize=auto;html=1;exitX=0;exitY=0.25;exitDx=0;exitDy=0;entryX=1;entryY=0.25;entryDx=0;entryDy=0;" parent="1" source="TuO1zeEdH__ycaznmqz_-61" target="TuO1zeEdH__ycaznmqz_-65" edge="1">
          <mxGeometry relative="1" as="geometry" />
        </mxCell>
        <mxCell id="TuO1zeEdH__ycaznmqz_-82" style="edgeStyle=orthogonalEdgeStyle;rounded=0;orthogonalLoop=1;jettySize=auto;html=1;exitX=0;exitY=0.25;exitDx=0;exitDy=0;entryX=1;entryY=0.5;entryDx=0;entryDy=0;" parent="1" source="TuO1zeEdH__ycaznmqz_-61" target="TuO1zeEdH__ycaznmqz_-73" edge="1">
          <mxGeometry relative="1" as="geometry" />
        </mxCell>
        <mxCell id="TuO1zeEdH__ycaznmqz_-83" style="edgeStyle=orthogonalEdgeStyle;rounded=0;orthogonalLoop=1;jettySize=auto;html=1;exitX=0.5;exitY=1;exitDx=0;exitDy=0;entryX=1;entryY=0.25;entryDx=0;entryDy=0;" parent="1" source="TuO1zeEdH__ycaznmqz_-57" target="TuO1zeEdH__ycaznmqz_-60" edge="1">
          <mxGeometry relative="1" as="geometry" />
        </mxCell>
        <mxCell id="TuO1zeEdH__ycaznmqz_-88" style="edgeStyle=orthogonalEdgeStyle;rounded=0;orthogonalLoop=1;jettySize=auto;html=1;exitX=0.75;exitY=0;exitDx=0;exitDy=0;entryX=0;entryY=0.25;entryDx=0;entryDy=0;" parent="1" source="TuO1zeEdH__ycaznmqz_-36" target="TuO1zeEdH__ycaznmqz_-41" edge="1">
          <mxGeometry relative="1" as="geometry" />
        </mxCell>
        <mxCell id="TuO1zeEdH__ycaznmqz_-89" style="edgeStyle=orthogonalEdgeStyle;rounded=0;orthogonalLoop=1;jettySize=auto;html=1;exitX=0.75;exitY=0;exitDx=0;exitDy=0;entryX=0;entryY=0.25;entryDx=0;entryDy=0;" parent="1" source="TuO1zeEdH__ycaznmqz_-36" target="TuO1zeEdH__ycaznmqz_-45" edge="1">
          <mxGeometry relative="1" as="geometry">
            <mxPoint x="3820" y="302.54" as="targetPoint" />
          </mxGeometry>
        </mxCell>
        <mxCell id="TuO1zeEdH__ycaznmqz_-90" style="edgeStyle=orthogonalEdgeStyle;rounded=0;orthogonalLoop=1;jettySize=auto;html=1;exitX=0.002;exitY=0.607;exitDx=0;exitDy=0;exitPerimeter=0;" parent="1" source="TuO1zeEdH__ycaznmqz_-37" target="TuO1zeEdH__ycaznmqz_-29" edge="1">
          <mxGeometry relative="1" as="geometry" />
        </mxCell>
        <mxCell id="TuO1zeEdH__ycaznmqz_-91" style="edgeStyle=orthogonalEdgeStyle;rounded=0;orthogonalLoop=1;jettySize=auto;html=1;exitX=0.002;exitY=0.159;exitDx=0;exitDy=0;exitPerimeter=0;entryX=1;entryY=0.5;entryDx=0;entryDy=0;" parent="1" source="TuO1zeEdH__ycaznmqz_-37" target="TuO1zeEdH__ycaznmqz_-33" edge="1">
          <mxGeometry relative="1" as="geometry" />
        </mxCell>
        <mxCell id="TuO1zeEdH__ycaznmqz_-92" style="edgeStyle=orthogonalEdgeStyle;rounded=0;orthogonalLoop=1;jettySize=auto;html=1;exitX=1;exitY=0.25;exitDx=0;exitDy=0;entryX=0;entryY=0.5;entryDx=0;entryDy=0;" parent="1" source="TuO1zeEdH__ycaznmqz_-26" target="TuO1zeEdH__ycaznmqz_-33" edge="1">
          <mxGeometry relative="1" as="geometry" />
        </mxCell>
        <mxCell id="TuO1zeEdH__ycaznmqz_-93" style="edgeStyle=orthogonalEdgeStyle;rounded=0;orthogonalLoop=1;jettySize=auto;html=1;exitX=0;exitY=0.5;exitDx=0;exitDy=0;entryX=1;entryY=0.75;entryDx=0;entryDy=0;" parent="1" source="TuO1zeEdH__ycaznmqz_-29" target="TuO1zeEdH__ycaznmqz_-26" edge="1">
          <mxGeometry relative="1" as="geometry" />
        </mxCell>
        <mxCell id="ZKtoWMeFN9g2J-okj2z--2" value="Fecha_E" style="ellipse;whiteSpace=wrap;html=1;align=center;" parent="1" vertex="1">
          <mxGeometry x="-113" y="390" width="100" height="40" as="geometry" />
        </mxCell>
        <mxCell id="ZKtoWMeFN9g2J-okj2z--3" value="" style="endArrow=none;html=1;rounded=0;exitX=1;exitY=0.5;exitDx=0;exitDy=0;entryX=0;entryY=0.5;entryDx=0;entryDy=0;" parent="1" source="ZKtoWMeFN9g2J-okj2z--2" target="TBOXvc80CKV6nfEF6dhi-10" edge="1">
          <mxGeometry relative="1" as="geometry">
            <mxPoint x="-780" y="370" as="sourcePoint" />
            <mxPoint x="-420" y="370" as="targetPoint" />
          </mxGeometry>
        </mxCell>
        <mxCell id="ZKtoWMeFN9g2J-okj2z--4" value="Imagen" style="ellipse;whiteSpace=wrap;html=1;align=center;" parent="1" vertex="1">
          <mxGeometry x="420" y="320" width="100" height="40" as="geometry" />
        </mxCell>
        <mxCell id="ZKtoWMeFN9g2J-okj2z--5" value="" style="endArrow=none;html=1;rounded=0;exitX=0;exitY=0.5;exitDx=0;exitDy=0;entryX=1;entryY=0.5;entryDx=0;entryDy=0;" parent="1" source="ZKtoWMeFN9g2J-okj2z--4" target="TBOXvc80CKV6nfEF6dhi-10" edge="1">
          <mxGeometry relative="1" as="geometry">
            <mxPoint x="120" y="160" as="sourcePoint" />
            <mxPoint x="480" y="160" as="targetPoint" />
          </mxGeometry>
        </mxCell>
        <mxCell id="ZKtoWMeFN9g2J-okj2z--8" value="" style="group" parent="1" vertex="1" connectable="0">
          <mxGeometry x="3390" y="800.04" width="160" height="160" as="geometry" />
        </mxCell>
        <mxCell id="ZKtoWMeFN9g2J-okj2z--9" value="Id_devolucionesÂ " style="swimlane;fontStyle=0;childLayout=stackLayout;horizontal=1;startSize=50;fillColor=#ffffff;horizontalStack=0;resizeParent=1;resizeParentMax=0;resizeLast=0;collapsible=0;marginBottom=0;swimlaneFillColor=#ffffff;movable=1;resizable=1;rotatable=1;deletable=1;editable=1;locked=0;connectable=1;" parent="ZKtoWMeFN9g2J-okj2z--8" vertex="1">
          <mxGeometry y="30" width="160" height="130" as="geometry" />
        </mxCell>
        <mxCell id="ZKtoWMeFN9g2J-okj2z--10" value="Id_venta&lt;br&gt;id_muebleDevuelto&lt;br&gt;&lt;div&gt;motivo&lt;br&gt;validaciÃ³n&amp;nbsp;&lt;/div&gt;" style="text;html=1;align=center;verticalAlign=middle;whiteSpace=wrap;rounded=0;" parent="ZKtoWMeFN9g2J-okj2z--9" vertex="1">
          <mxGeometry y="50" width="160" height="80" as="geometry" />
        </mxCell>
        <mxCell id="ZKtoWMeFN9g2J-okj2z--11" value="Devolucion" style="text;html=1;align=center;verticalAlign=middle;whiteSpace=wrap;rounded=0;movable=1;resizable=1;rotatable=1;deletable=1;editable=1;locked=0;connectable=1;" parent="ZKtoWMeFN9g2J-okj2z--8" vertex="1">
          <mxGeometry width="90" height="30" as="geometry" />
        </mxCell>
        <mxCell id="ZKtoWMeFN9g2J-okj2z--12" value="" style="group" parent="1" vertex="1" connectable="0">
          <mxGeometry x="3630" y="802.54" width="160" height="290" as="geometry" />
        </mxCell>
        <mxCell id="ZKtoWMeFN9g2J-okj2z--13" value="Id_muebleDevueltoÂ " style="swimlane;fontStyle=0;childLayout=stackLayout;horizontal=1;startSize=50;fillColor=#ffffff;horizontalStack=0;resizeParent=1;resizeParentMax=0;resizeLast=0;collapsible=0;marginBottom=0;swimlaneFillColor=#ffffff;movable=1;resizable=1;rotatable=1;deletable=1;editable=1;locked=0;connectable=1;" parent="ZKtoWMeFN9g2J-okj2z--12" vertex="1">
          <mxGeometry y="30" width="160" height="260" as="geometry" />
        </mxCell>
        <mxCell id="ZKtoWMeFN9g2J-okj2z--14" value="Id_devolucion&amp;nbsp;&lt;br&gt;&lt;div&gt;Nombre&lt;br&gt;Cantidad&lt;br&gt;Alto&lt;br&gt;Largo&lt;br&gt;Ancho&lt;br&gt;Imagen&lt;br&gt;Precio&lt;br&gt;Id_material&lt;br&gt;Id_color&lt;br&gt;Id_tipoMueble&lt;br&gt;&lt;/div&gt;" style="text;html=1;align=center;verticalAlign=middle;whiteSpace=wrap;rounded=0;" parent="ZKtoWMeFN9g2J-okj2z--13" vertex="1">
          <mxGeometry y="50" width="160" height="210" as="geometry" />
        </mxCell>
        <mxCell id="ZKtoWMeFN9g2J-okj2z--15" value="Mueble_devuelto&amp;nbsp;" style="text;html=1;align=center;verticalAlign=middle;whiteSpace=wrap;rounded=0;movable=1;resizable=1;rotatable=1;deletable=1;editable=1;locked=0;connectable=1;" parent="ZKtoWMeFN9g2J-okj2z--12" vertex="1">
          <mxGeometry width="110" height="30" as="geometry" />
        </mxCell>
        <mxCell id="ZKtoWMeFN9g2J-okj2z--18" style="edgeStyle=orthogonalEdgeStyle;rounded=0;orthogonalLoop=1;jettySize=auto;html=1;exitX=0;exitY=0.5;exitDx=0;exitDy=0;entryX=0.5;entryY=1;entryDx=0;entryDy=0;" parent="1" source="ZKtoWMeFN9g2J-okj2z--10" target="TuO1zeEdH__ycaznmqz_-61" edge="1">
          <mxGeometry relative="1" as="geometry" />
        </mxCell>
        <mxCell id="ZKtoWMeFN9g2J-okj2z--22" style="edgeStyle=orthogonalEdgeStyle;rounded=0;orthogonalLoop=1;jettySize=auto;html=1;exitX=1;exitY=0.25;exitDx=0;exitDy=0;entryX=1;entryY=0.5;entryDx=0;entryDy=0;" parent="1" source="ZKtoWMeFN9g2J-okj2z--14" target="TuO1zeEdH__ycaznmqz_-45" edge="1">
          <mxGeometry relative="1" as="geometry">
            <Array as="points">
              <mxPoint x="3910" y="919.54" />
              <mxPoint x="3910" y="257.54" />
            </Array>
          </mxGeometry>
        </mxCell>
        <mxCell id="ZKtoWMeFN9g2J-okj2z--21" style="edgeStyle=orthogonalEdgeStyle;rounded=0;orthogonalLoop=1;jettySize=auto;html=1;exitX=1;exitY=0.5;exitDx=0;exitDy=0;entryX=1;entryY=0.25;entryDx=0;entryDy=0;" parent="1" source="ZKtoWMeFN9g2J-okj2z--14" target="TuO1zeEdH__ycaznmqz_-41" edge="1">
          <mxGeometry relative="1" as="geometry">
            <Array as="points">
              <mxPoint x="3790" y="962.54" />
              <mxPoint x="3960" y="962.54" />
              <mxPoint x="3960" y="142.54000000000002" />
            </Array>
          </mxGeometry>
        </mxCell>
        <mxCell id="TuO1zeEdH__ycaznmqz_-31" value="" style="group" parent="1" vertex="1" connectable="0">
          <mxGeometry x="2990" y="152.54000000000002" width="160" height="150" as="geometry" />
        </mxCell>
        <mxCell id="TuO1zeEdH__ycaznmqz_-32" value="Id_tipoMueble" style="swimlane;fontStyle=0;childLayout=stackLayout;horizontal=1;startSize=40;fillColor=#ffffff;horizontalStack=0;resizeParent=1;resizeParentMax=0;resizeLast=0;collapsible=0;marginBottom=0;swimlaneFillColor=#ffffff;movable=1;resizable=1;rotatable=1;deletable=1;editable=1;locked=0;connectable=1;" parent="TuO1zeEdH__ycaznmqz_-31" vertex="1">
          <mxGeometry y="30" width="160" height="90" as="geometry" />
        </mxCell>
        <mxCell id="TuO1zeEdH__ycaznmqz_-33" value="Nombre" style="text;html=1;align=center;verticalAlign=middle;whiteSpace=wrap;rounded=0;" parent="TuO1zeEdH__ycaznmqz_-32" vertex="1">
          <mxGeometry y="40" width="160" height="50" as="geometry" />
        </mxCell>
        <mxCell id="TuO1zeEdH__ycaznmqz_-34" value="Tipo_mueble" style="text;html=1;align=center;verticalAlign=middle;whiteSpace=wrap;rounded=0;movable=1;resizable=1;rotatable=1;deletable=1;editable=1;locked=0;connectable=1;" parent="TuO1zeEdH__ycaznmqz_-31" vertex="1">
          <mxGeometry width="90" height="30" as="geometry" />
        </mxCell>
        <mxCell id="ZKtoWMeFN9g2J-okj2z--23" value="" style="group" parent="1" vertex="1" connectable="0">
          <mxGeometry x="2990" y="352.54" width="160" height="130" as="geometry" />
        </mxCell>
        <mxCell id="TuO1zeEdH__ycaznmqz_-28" value="Id_proveedoresÂ &#xa;Id_mueble" style="swimlane;fontStyle=0;childLayout=stackLayout;horizontal=1;startSize=40;fillColor=#ffffff;horizontalStack=0;resizeParent=1;resizeParentMax=0;resizeLast=0;collapsible=0;marginBottom=0;swimlaneFillColor=#ffffff;movable=1;resizable=1;rotatable=1;deletable=1;editable=1;locked=0;connectable=1;" parent="ZKtoWMeFN9g2J-okj2z--23" vertex="1">
          <mxGeometry y="30" width="160" height="100" as="geometry" />
        </mxCell>
        <mxCell id="TuO1zeEdH__ycaznmqz_-29" value="Cantidad&lt;br&gt;Fecha_E&lt;br&gt;Costos" style="text;html=1;align=center;verticalAlign=middle;whiteSpace=wrap;rounded=0;" parent="TuO1zeEdH__ycaznmqz_-28" vertex="1">
          <mxGeometry y="40" width="160" height="60" as="geometry" />
        </mxCell>
        <mxCell id="TuO1zeEdH__ycaznmqz_-30" value="Compra" style="text;html=1;align=center;verticalAlign=middle;whiteSpace=wrap;rounded=0;movable=1;resizable=1;rotatable=1;deletable=1;editable=1;locked=0;connectable=1;" parent="ZKtoWMeFN9g2J-okj2z--23" vertex="1">
          <mxGeometry width="90" height="30" as="geometry" />
        </mxCell>
        <mxCell id="ZKtoWMeFN9g2J-okj2z--24" style="edgeStyle=orthogonalEdgeStyle;rounded=0;orthogonalLoop=1;jettySize=auto;html=1;exitX=1;exitY=0.75;exitDx=0;exitDy=0;entryX=0.75;entryY=0;entryDx=0;entryDy=0;" parent="1" source="ZKtoWMeFN9g2J-okj2z--14" target="TuO1zeEdH__ycaznmqz_-32" edge="1">
          <mxGeometry relative="1" as="geometry">
            <mxPoint x="3800" y="1013.2066666666667" as="sourcePoint" />
            <Array as="points">
              <mxPoint x="4010" y="995.54" />
              <mxPoint x="4010" y="32.54" />
              <mxPoint x="3110" y="32.54" />
            </Array>
          </mxGeometry>
        </mxCell>
        <mxCell id="ZKtoWMeFN9g2J-okj2z--27" value="" style="group" parent="1" vertex="1" connectable="0">
          <mxGeometry x="3630" y="632.54" width="160" height="150" as="geometry" />
        </mxCell>
        <mxCell id="ZKtoWMeFN9g2J-okj2z--28" value="Id_venta&#xa;Id_muebleDevuelto" style="swimlane;fontStyle=0;childLayout=stackLayout;horizontal=1;startSize=50;fillColor=#ffffff;horizontalStack=0;resizeParent=1;resizeParentMax=0;resizeLast=0;collapsible=0;marginBottom=0;swimlaneFillColor=#ffffff;movable=1;resizable=1;rotatable=1;deletable=1;editable=1;locked=0;connectable=1;" parent="ZKtoWMeFN9g2J-okj2z--27" vertex="1">
          <mxGeometry y="30" width="160" height="100" as="geometry" />
        </mxCell>
        <mxCell id="ZKtoWMeFN9g2J-okj2z--29" value="Cantidad" style="text;html=1;align=center;verticalAlign=middle;whiteSpace=wrap;rounded=0;" parent="ZKtoWMeFN9g2J-okj2z--28" vertex="1">
          <mxGeometry y="50" width="160" height="50" as="geometry" />
        </mxCell>
        <mxCell id="ZKtoWMeFN9g2J-okj2z--30" value="Revender" style="text;html=1;align=center;verticalAlign=middle;whiteSpace=wrap;rounded=0;movable=1;resizable=1;rotatable=1;deletable=1;editable=1;locked=0;connectable=1;" parent="ZKtoWMeFN9g2J-okj2z--27" vertex="1">
          <mxGeometry x="1" width="90" height="30" as="geometry" />
        </mxCell>
        <mxCell id="ZKtoWMeFN9g2J-okj2z--32" style="edgeStyle=orthogonalEdgeStyle;rounded=0;orthogonalLoop=1;jettySize=auto;html=1;exitX=0;exitY=0.5;exitDx=0;exitDy=0;entryX=0.984;entryY=0.389;entryDx=0;entryDy=0;entryPerimeter=0;" parent="1" source="ZKtoWMeFN9g2J-okj2z--29" target="TuO1zeEdH__ycaznmqz_-61" edge="1">
          <mxGeometry relative="1" as="geometry">
            <Array as="points">
              <mxPoint x="3630" y="743.54" />
            </Array>
          </mxGeometry>
        </mxCell>
        <mxCell id="ZKtoWMeFN9g2J-okj2z--34" value="Fecha_inicio" style="ellipse;whiteSpace=wrap;html=1;align=center;" parent="1" vertex="1">
          <mxGeometry x="20" y="1040" width="100" height="40" as="geometry" />
        </mxCell>
        <mxCell id="ZKtoWMeFN9g2J-okj2z--35" value="" style="endArrow=none;html=1;rounded=0;exitX=0.5;exitY=1;exitDx=0;exitDy=0;entryX=0.5;entryY=0;entryDx=0;entryDy=0;" parent="1" source="TBOXvc80CKV6nfEF6dhi-16" target="ZKtoWMeFN9g2J-okj2z--34" edge="1">
          <mxGeometry relative="1" as="geometry">
            <mxPoint x="50" y="1017.5" as="sourcePoint" />
            <mxPoint x="-260" y="547.5" as="targetPoint" />
          </mxGeometry>
        </mxCell>
        <mxCell id="ZKtoWMeFN9g2J-okj2z--36" value="Fecha_inicio" style="ellipse;whiteSpace=wrap;html=1;align=center;" parent="1" vertex="1">
          <mxGeometry x="450" y="760" width="100" height="40" as="geometry" />
        </mxCell>
        <mxCell id="ZKtoWMeFN9g2J-okj2z--37" value="" style="endArrow=none;html=1;rounded=0;exitX=0.5;exitY=1;exitDx=0;exitDy=0;entryX=0.5;entryY=0;entryDx=0;entryDy=0;" parent="1" source="TBOXvc80CKV6nfEF6dhi-18" target="ZKtoWMeFN9g2J-okj2z--36" edge="1">
          <mxGeometry relative="1" as="geometry">
            <mxPoint x="770" y="575" as="sourcePoint" />
            <mxPoint x="380" y="145" as="targetPoint" />
          </mxGeometry>
        </mxCell>
        <mxCell id="ZKtoWMeFN9g2J-okj2z--38" value="Fecha_de_inicio" style="ellipse;whiteSpace=wrap;html=1;align=center;" parent="1" vertex="1">
          <mxGeometry x="-700" y="100" width="100" height="40" as="geometry" />
        </mxCell>
        <mxCell id="ZKtoWMeFN9g2J-okj2z--39" value="" style="endArrow=none;html=1;rounded=0;exitX=0;exitY=0.5;exitDx=0;exitDy=0;entryX=1;entryY=0.5;entryDx=0;entryDy=0;" parent="1" source="TBOXvc80CKV6nfEF6dhi-17" target="ZKtoWMeFN9g2J-okj2z--38" edge="1">
          <mxGeometry relative="1" as="geometry">
            <mxPoint x="-740" y="105" as="sourcePoint" />
            <mxPoint x="-1130" y="-325" as="targetPoint" />
          </mxGeometry>
        </mxCell>
        <mxCell id="ZKtoWMeFN9g2J-okj2z--44" value="Devolucion" style="rounded=1;arcSize=10;whiteSpace=wrap;html=1;align=center;" parent="1" vertex="1">
          <mxGeometry x="-510" y="617.5" width="100" height="40" as="geometry" />
        </mxCell>
        <mxCell id="ZKtoWMeFN9g2J-okj2z--45" value="&lt;u&gt;Id_devolucion&lt;/u&gt;" style="ellipse;whiteSpace=wrap;html=1;align=center;" parent="1" vertex="1">
          <mxGeometry x="-660" y="557.5" width="100" height="40" as="geometry" />
        </mxCell>
        <mxCell id="ZKtoWMeFN9g2J-okj2z--47" value="Motivo" style="ellipse;whiteSpace=wrap;html=1;align=center;" parent="1" vertex="1">
          <mxGeometry x="-440" y="472.5" width="100" height="40" as="geometry" />
        </mxCell>
        <mxCell id="ZKtoWMeFN9g2J-okj2z--48" value="Validacion&amp;nbsp;" style="ellipse;whiteSpace=wrap;html=1;align=center;" parent="1" vertex="1">
          <mxGeometry x="-600" y="472.5" width="100" height="40" as="geometry" />
        </mxCell>
        <mxCell id="ZKtoWMeFN9g2J-okj2z--50" value="" style="endArrow=none;html=1;rounded=0;exitX=1;exitY=0.5;exitDx=0;exitDy=0;entryX=0;entryY=0.5;entryDx=0;entryDy=0;" parent="1" source="ZKtoWMeFN9g2J-okj2z--45" target="ZKtoWMeFN9g2J-okj2z--44" edge="1">
          <mxGeometry relative="1" as="geometry">
            <mxPoint x="-940" y="682.5" as="sourcePoint" />
            <mxPoint x="-780" y="682.5" as="targetPoint" />
          </mxGeometry>
        </mxCell>
        <mxCell id="ZKtoWMeFN9g2J-okj2z--52" value="" style="endArrow=none;html=1;rounded=0;exitX=0.5;exitY=1;exitDx=0;exitDy=0;entryX=0.5;entryY=0;entryDx=0;entryDy=0;" parent="1" source="ZKtoWMeFN9g2J-okj2z--48" target="ZKtoWMeFN9g2J-okj2z--44" edge="1">
          <mxGeometry relative="1" as="geometry">
            <mxPoint x="-940" y="682.5" as="sourcePoint" />
            <mxPoint x="-470" y="612.5" as="targetPoint" />
          </mxGeometry>
        </mxCell>
        <mxCell id="ZKtoWMeFN9g2J-okj2z--54" value="" style="endArrow=none;html=1;rounded=0;exitX=0.5;exitY=0;exitDx=0;exitDy=0;entryX=0.5;entryY=1;entryDx=0;entryDy=0;" parent="1" source="ZKtoWMeFN9g2J-okj2z--44" target="ZKtoWMeFN9g2J-okj2z--47" edge="1">
          <mxGeometry relative="1" as="geometry">
            <mxPoint x="-940" y="682.5" as="sourcePoint" />
            <mxPoint x="-780" y="682.5" as="targetPoint" />
          </mxGeometry>
        </mxCell>
        <mxCell id="ZKtoWMeFN9g2J-okj2z--59" value="Mueble Devuelto" style="rounded=1;arcSize=10;whiteSpace=wrap;html=1;align=center;" parent="1" vertex="1">
          <mxGeometry x="-520" y="907.5" width="120" height="40" as="geometry" />
        </mxCell>
        <mxCell id="ZKtoWMeFN9g2J-okj2z--60" value="" style="endArrow=none;html=1;rounded=0;entryX=0;entryY=0.5;entryDx=0;entryDy=0;" parent="1" source="ZKtoWMeFN9g2J-okj2z--71" target="ZKtoWMeFN9g2J-okj2z--59" edge="1">
          <mxGeometry relative="1" as="geometry">
            <mxPoint x="-539.9999999999895" y="927.5" as="sourcePoint" />
            <mxPoint x="-870" y="957.5" as="targetPoint" />
          </mxGeometry>
        </mxCell>
        <mxCell id="ZKtoWMeFN9g2J-okj2z--61" value="Color" style="ellipse;whiteSpace=wrap;html=1;align=center;" parent="1" vertex="1">
          <mxGeometry x="-300" y="837.5" width="100" height="40" as="geometry" />
        </mxCell>
        <mxCell id="ZKtoWMeFN9g2J-okj2z--62" value="" style="endArrow=none;html=1;rounded=0;exitX=1;exitY=0.5;exitDx=0;exitDy=0;entryX=0;entryY=0.5;entryDx=0;entryDy=0;" parent="1" source="ZKtoWMeFN9g2J-okj2z--59" target="ZKtoWMeFN9g2J-okj2z--61" edge="1">
          <mxGeometry relative="1" as="geometry">
            <mxPoint x="-790" y="927.5" as="sourcePoint" />
            <mxPoint x="-860" y="967.5" as="targetPoint" />
          </mxGeometry>
        </mxCell>
        <mxCell id="ZKtoWMeFN9g2J-okj2z--63" value="Nombre" style="ellipse;whiteSpace=wrap;html=1;align=center;" parent="1" vertex="1">
          <mxGeometry x="-580" y="832.5" width="100" height="40" as="geometry" />
        </mxCell>
        <mxCell id="ZKtoWMeFN9g2J-okj2z--64" value="Ancho" style="ellipse;whiteSpace=wrap;html=1;align=center;" parent="1" vertex="1">
          <mxGeometry x="-440" y="832.5" width="100" height="40" as="geometry" />
        </mxCell>
        <mxCell id="ZKtoWMeFN9g2J-okj2z--65" value="Tipo_mueble" style="ellipse;whiteSpace=wrap;html=1;align=center;" parent="1" vertex="1">
          <mxGeometry x="-570" y="977.5" width="100" height="40" as="geometry" />
        </mxCell>
        <mxCell id="ZKtoWMeFN9g2J-okj2z--66" value="Material" style="ellipse;whiteSpace=wrap;html=1;align=center;" parent="1" vertex="1">
          <mxGeometry x="-440" y="977.5" width="100" height="40" as="geometry" />
        </mxCell>
        <mxCell id="ZKtoWMeFN9g2J-okj2z--67" value="" style="endArrow=none;html=1;rounded=0;exitX=0.5;exitY=0;exitDx=0;exitDy=0;entryX=0.5;entryY=1;entryDx=0;entryDy=0;" parent="1" source="ZKtoWMeFN9g2J-okj2z--65" target="ZKtoWMeFN9g2J-okj2z--59" edge="1">
          <mxGeometry relative="1" as="geometry">
            <mxPoint x="-810" y="937.5" as="sourcePoint" />
            <mxPoint x="-850" y="937.5" as="targetPoint" />
          </mxGeometry>
        </mxCell>
        <mxCell id="ZKtoWMeFN9g2J-okj2z--68" value="" style="endArrow=none;html=1;rounded=0;exitX=0.5;exitY=0;exitDx=0;exitDy=0;entryX=0.5;entryY=1;entryDx=0;entryDy=0;" parent="1" source="ZKtoWMeFN9g2J-okj2z--66" target="ZKtoWMeFN9g2J-okj2z--59" edge="1">
          <mxGeometry relative="1" as="geometry">
            <mxPoint x="-800" y="947.5" as="sourcePoint" />
            <mxPoint x="-840" y="947.5" as="targetPoint" />
          </mxGeometry>
        </mxCell>
        <mxCell id="ZKtoWMeFN9g2J-okj2z--69" value="" style="endArrow=none;html=1;rounded=0;exitX=0.5;exitY=0;exitDx=0;exitDy=0;entryX=0.5;entryY=1;entryDx=0;entryDy=0;" parent="1" source="ZKtoWMeFN9g2J-okj2z--59" target="ZKtoWMeFN9g2J-okj2z--63" edge="1">
          <mxGeometry relative="1" as="geometry">
            <mxPoint x="-790" y="957.5" as="sourcePoint" />
            <mxPoint x="-830" y="957.5" as="targetPoint" />
          </mxGeometry>
        </mxCell>
        <mxCell id="ZKtoWMeFN9g2J-okj2z--70" value="" style="endArrow=none;html=1;rounded=0;exitX=0.5;exitY=1;exitDx=0;exitDy=0;entryX=0.5;entryY=0;entryDx=0;entryDy=0;" parent="1" source="ZKtoWMeFN9g2J-okj2z--64" target="ZKtoWMeFN9g2J-okj2z--59" edge="1">
          <mxGeometry relative="1" as="geometry">
            <mxPoint x="-780" y="967.5" as="sourcePoint" />
            <mxPoint x="-820" y="967.5" as="targetPoint" />
          </mxGeometry>
        </mxCell>
        <mxCell id="ZKtoWMeFN9g2J-okj2z--71" value="&lt;u&gt;Id_mueble_devuelto&lt;/u&gt;" style="ellipse;whiteSpace=wrap;html=1;align=center;" parent="1" vertex="1">
          <mxGeometry x="-710" y="845" width="100" height="40" as="geometry" />
        </mxCell>
        <mxCell id="ZKtoWMeFN9g2J-okj2z--72" value="Precio" style="ellipse;whiteSpace=wrap;html=1;align=center;" parent="1" vertex="1">
          <mxGeometry x="-300" y="972.5" width="100" height="40" as="geometry" />
        </mxCell>
        <mxCell id="ZKtoWMeFN9g2J-okj2z--73" value="" style="endArrow=none;html=1;rounded=0;exitX=1;exitY=0.5;exitDx=0;exitDy=0;entryX=0;entryY=0;entryDx=0;entryDy=0;" parent="1" source="ZKtoWMeFN9g2J-okj2z--59" target="ZKtoWMeFN9g2J-okj2z--72" edge="1">
          <mxGeometry relative="1" as="geometry">
            <mxPoint x="-370" y="937.5" as="sourcePoint" />
            <mxPoint x="-290" y="897.5" as="targetPoint" />
          </mxGeometry>
        </mxCell>
        <mxCell id="ZKtoWMeFN9g2J-okj2z--76" value="Largo" style="ellipse;whiteSpace=wrap;html=1;align=center;" parent="1" vertex="1">
          <mxGeometry x="-790" y="877.5" width="100" height="40" as="geometry" />
        </mxCell>
        <mxCell id="ZKtoWMeFN9g2J-okj2z--77" value="" style="endArrow=none;html=1;rounded=0;exitX=0;exitY=0.5;exitDx=0;exitDy=0;entryX=1;entryY=0.5;entryDx=0;entryDy=0;" parent="1" source="ZKtoWMeFN9g2J-okj2z--59" target="ZKtoWMeFN9g2J-okj2z--76" edge="1">
          <mxGeometry relative="1" as="geometry">
            <mxPoint x="-370" y="937.5" as="sourcePoint" />
            <mxPoint x="-280" y="907.5" as="targetPoint" />
          </mxGeometry>
        </mxCell>
        <mxCell id="ZKtoWMeFN9g2J-okj2z--78" value="Alto" style="ellipse;whiteSpace=wrap;html=1;align=center;" parent="1" vertex="1">
          <mxGeometry x="-240" y="877.5" width="100" height="40" as="geometry" />
        </mxCell>
        <mxCell id="ZKtoWMeFN9g2J-okj2z--79" value="" style="endArrow=none;html=1;rounded=0;exitX=1;exitY=0.5;exitDx=0;exitDy=0;entryX=0;entryY=0.5;entryDx=0;entryDy=0;" parent="1" source="ZKtoWMeFN9g2J-okj2z--59" target="ZKtoWMeFN9g2J-okj2z--78" edge="1">
          <mxGeometry relative="1" as="geometry">
            <mxPoint x="-360" y="947.5" as="sourcePoint" />
            <mxPoint x="-270" y="917.5" as="targetPoint" />
          </mxGeometry>
        </mxCell>
        <mxCell id="ZKtoWMeFN9g2J-okj2z--80" value="Cantidad" style="ellipse;whiteSpace=wrap;html=1;align=center;" parent="1" vertex="1">
          <mxGeometry x="-240" y="927.5" width="100" height="40" as="geometry" />
        </mxCell>
        <mxCell id="ZKtoWMeFN9g2J-okj2z--81" value="" style="endArrow=none;html=1;rounded=0;exitX=1;exitY=0.5;exitDx=0;exitDy=0;entryX=0;entryY=0.5;entryDx=0;entryDy=0;" parent="1" source="ZKtoWMeFN9g2J-okj2z--59" target="ZKtoWMeFN9g2J-okj2z--80" edge="1">
          <mxGeometry relative="1" as="geometry">
            <mxPoint x="-370" y="937.5" as="sourcePoint" />
            <mxPoint x="-190" y="897.5" as="targetPoint" />
          </mxGeometry>
        </mxCell>
        <mxCell id="ZKtoWMeFN9g2J-okj2z--82" value="Estado" style="ellipse;whiteSpace=wrap;html=1;align=center;" parent="1" vertex="1">
          <mxGeometry x="-710" y="967.5" width="100" height="40" as="geometry" />
        </mxCell>
        <mxCell id="ZKtoWMeFN9g2J-okj2z--83" value="" style="endArrow=none;html=1;rounded=0;exitX=1;exitY=0;exitDx=0;exitDy=0;entryX=0;entryY=0.5;entryDx=0;entryDy=0;" parent="1" source="ZKtoWMeFN9g2J-okj2z--82" target="ZKtoWMeFN9g2J-okj2z--59" edge="1">
          <mxGeometry relative="1" as="geometry">
            <mxPoint x="-1350" y="957.5" as="sourcePoint" />
            <mxPoint x="-990" y="957.5" as="targetPoint" />
          </mxGeometry>
        </mxCell>
        <mxCell id="ZKtoWMeFN9g2J-okj2z--84" value="Imagen" style="ellipse;whiteSpace=wrap;html=1;align=center;" parent="1" vertex="1">
          <mxGeometry x="-790" y="932.5" width="100" height="40" as="geometry" />
        </mxCell>
        <mxCell id="ZKtoWMeFN9g2J-okj2z--85" value="" style="endArrow=none;html=1;rounded=0;exitX=1;exitY=0.5;exitDx=0;exitDy=0;entryX=0;entryY=0.5;entryDx=0;entryDy=0;" parent="1" source="ZKtoWMeFN9g2J-okj2z--84" target="ZKtoWMeFN9g2J-okj2z--59" edge="1">
          <mxGeometry relative="1" as="geometry">
            <mxPoint x="-450" y="747.5" as="sourcePoint" />
            <mxPoint x="-90" y="747.5" as="targetPoint" />
          </mxGeometry>
        </mxCell>
        <mxCell id="ZKtoWMeFN9g2J-okj2z--89" value="" style="endArrow=none;html=1;rounded=0;exitX=1;exitY=0.5;exitDx=0;exitDy=0;entryX=0;entryY=0.5;entryDx=0;entryDy=0;" parent="1" source="E23f7wQ3UJA1HukhsZAp-12" target="TBOXvc80CKV6nfEF6dhi-37" edge="1">
          <mxGeometry relative="1" as="geometry">
            <mxPoint x="-430" y="915" as="sourcePoint" />
            <mxPoint y="630" as="targetPoint" />
          </mxGeometry>
        </mxCell>
        <mxCell id="E23f7wQ3UJA1HukhsZAp-2" value="Id_mueble" style="ellipse;whiteSpace=wrap;html=1;align=center;fontStyle=4;" parent="1" vertex="1">
          <mxGeometry x="-113" y="250" width="100" height="40" as="geometry" />
        </mxCell>
        <mxCell id="E23f7wQ3UJA1HukhsZAp-3" value="Fecha_terminacion" style="ellipse;whiteSpace=wrap;html=1;align=center;" parent="1" vertex="1">
          <mxGeometry x="-700" y="180" width="100" height="40" as="geometry" />
        </mxCell>
        <mxCell id="E23f7wQ3UJA1HukhsZAp-4" value="" style="endArrow=none;html=1;rounded=0;exitX=0;exitY=0.5;exitDx=0;exitDy=0;entryX=1;entryY=0.5;entryDx=0;entryDy=0;" parent="1" source="TBOXvc80CKV6nfEF6dhi-17" target="E23f7wQ3UJA1HukhsZAp-3" edge="1">
          <mxGeometry relative="1" as="geometry">
            <mxPoint x="-580" y="225" as="sourcePoint" />
            <mxPoint x="-1130" y="-260" as="targetPoint" />
          </mxGeometry>
        </mxCell>
        <mxCell id="E23f7wQ3UJA1HukhsZAp-5" value="Fecha_terminacion&amp;nbsp;" style="ellipse;whiteSpace=wrap;html=1;align=center;" parent="1" vertex="1">
          <mxGeometry x="-270" y="320" width="100" height="40" as="geometry" />
        </mxCell>
        <mxCell id="E23f7wQ3UJA1HukhsZAp-6" value="" style="endArrow=none;html=1;rounded=0;exitX=0;exitY=0.5;exitDx=0;exitDy=0;entryX=1;entryY=0.5;entryDx=0;entryDy=0;" parent="1" source="TBOXvc80CKV6nfEF6dhi-10" target="E23f7wQ3UJA1HukhsZAp-5" edge="1">
          <mxGeometry relative="1" as="geometry">
            <mxPoint x="-300" y="390" as="sourcePoint" />
            <mxPoint x="-850" y="-95" as="targetPoint" />
          </mxGeometry>
        </mxCell>
        <mxCell id="E23f7wQ3UJA1HukhsZAp-7" value="Id_venta" style="ellipse;whiteSpace=wrap;html=1;align=center;fontStyle=4;" parent="1" vertex="1">
          <mxGeometry y="557.5" width="100" height="40" as="geometry" />
        </mxCell>
        <mxCell id="E23f7wQ3UJA1HukhsZAp-8" value="" style="endArrow=none;html=1;rounded=0;exitX=0.5;exitY=0;exitDx=0;exitDy=0;entryX=0.5;entryY=1;entryDx=0;entryDy=0;" parent="1" source="E23f7wQ3UJA1HukhsZAp-10" target="TBOXvc80CKV6nfEF6dhi-37" edge="1">
          <mxGeometry relative="1" as="geometry">
            <mxPoint x="40" y="700" as="sourcePoint" />
            <mxPoint x="40" y="660" as="targetPoint" />
          </mxGeometry>
        </mxCell>
        <mxCell id="E23f7wQ3UJA1HukhsZAp-10" value="Metodo_de_pago" style="ellipse;whiteSpace=wrap;html=1;align=center;" parent="1" vertex="1">
          <mxGeometry y="680" width="100" height="40" as="geometry" />
        </mxCell>
        <mxCell id="E23f7wQ3UJA1HukhsZAp-12" value="reportar" style="shape=rhombus;perimeter=rhombusPerimeter;whiteSpace=wrap;html=1;align=center;" parent="1" vertex="1">
          <mxGeometry x="-200" y="607.5" width="60" height="60" as="geometry" />
        </mxCell>
        <mxCell id="E23f7wQ3UJA1HukhsZAp-15" value="" style="endArrow=none;html=1;rounded=0;entryX=0;entryY=0.5;entryDx=0;entryDy=0;" parent="1" source="ZKtoWMeFN9g2J-okj2z--44" target="E23f7wQ3UJA1HukhsZAp-12" edge="1">
          <mxGeometry relative="1" as="geometry">
            <mxPoint x="-130" y="700" as="sourcePoint" />
            <mxPoint x="80" y="648" as="targetPoint" />
          </mxGeometry>
        </mxCell>
        <mxCell id="E23f7wQ3UJA1HukhsZAp-19" style="edgeStyle=orthogonalEdgeStyle;rounded=0;orthogonalLoop=1;jettySize=auto;html=1;exitX=0.5;exitY=0;exitDx=0;exitDy=0;entryX=0.5;entryY=1;entryDx=0;entryDy=0;" parent="1" source="E23f7wQ3UJA1HukhsZAp-17" target="ZKtoWMeFN9g2J-okj2z--44" edge="1">
          <mxGeometry relative="1" as="geometry" />
        </mxCell>
        <mxCell id="E23f7wQ3UJA1HukhsZAp-17" value="agregar" style="shape=rhombus;perimeter=rhombusPerimeter;whiteSpace=wrap;html=1;align=center;" parent="1" vertex="1">
          <mxGeometry x="-490" y="740" width="60" height="60" as="geometry" />
        </mxCell>
        <mxCell id="E23f7wQ3UJA1HukhsZAp-18" value="" style="endArrow=none;html=1;rounded=0;entryX=0.5;entryY=0;entryDx=0;entryDy=0;exitX=0.5;exitY=1;exitDx=0;exitDy=0;" parent="1" source="E23f7wQ3UJA1HukhsZAp-17" target="ZKtoWMeFN9g2J-okj2z--59" edge="1">
          <mxGeometry relative="1" as="geometry">
            <mxPoint x="-400" y="770" as="sourcePoint" />
            <mxPoint x="-390" y="718" as="targetPoint" />
          </mxGeometry>
        </mxCell>
        <mxCell id="TuO1zeEdH__ycaznmqz_-84" style="edgeStyle=orthogonalEdgeStyle;rounded=0;orthogonalLoop=1;jettySize=auto;html=1;exitX=0;exitY=0.25;exitDx=0;exitDy=0;entryX=0.5;entryY=1;entryDx=0;entryDy=0;" parent="1" source="TuO1zeEdH__ycaznmqz_-56" target="TuO1zeEdH__ycaznmqz_-37" edge="1">
          <mxGeometry relative="1" as="geometry" />
        </mxCell>
        <mxCell id="ZKtoWMeFN9g2J-okj2z--33" style="edgeStyle=orthogonalEdgeStyle;rounded=0;orthogonalLoop=1;jettySize=auto;html=1;exitX=0.75;exitY=1;exitDx=0;exitDy=0;entryX=0.75;entryY=0;entryDx=0;entryDy=0;" parent="1" source="ZKtoWMeFN9g2J-okj2z--29" target="ZKtoWMeFN9g2J-okj2z--13" edge="1">
          <mxGeometry relative="1" as="geometry" />
        </mxCell>
        <mxCell id="E23f7wQ3UJA1HukhsZAp-20" value="Fecha_terminacion" style="ellipse;whiteSpace=wrap;html=1;align=center;" parent="1" vertex="1">
          <mxGeometry x="140" y="1040" width="100" height="40" as="geometry" />
        </mxCell>
        <mxCell id="E23f7wQ3UJA1HukhsZAp-21" value="" style="endArrow=none;html=1;rounded=0;exitX=0.5;exitY=1;exitDx=0;exitDy=0;entryX=0.5;entryY=0;entryDx=0;entryDy=0;" parent="1" source="TBOXvc80CKV6nfEF6dhi-16" target="E23f7wQ3UJA1HukhsZAp-20" edge="1">
          <mxGeometry relative="1" as="geometry">
            <mxPoint x="260" y="1009" as="sourcePoint" />
            <mxPoint x="-130" y="578.5" as="targetPoint" />
          </mxGeometry>
        </mxCell>
        <mxCell id="E23f7wQ3UJA1HukhsZAp-22" style="edgeStyle=orthogonalEdgeStyle;rounded=0;orthogonalLoop=1;jettySize=auto;html=1;exitX=0;exitY=0;exitDx=0;exitDy=0;entryX=1;entryY=0.25;entryDx=0;entryDy=0;" parent="1" source="ZKtoWMeFN9g2J-okj2z--14" target="ZKtoWMeFN9g2J-okj2z--9" edge="1">
          <mxGeometry relative="1" as="geometry" />
        </mxCell>
        <mxCell id="E23f7wQ3UJA1HukhsZAp-24" value="revender" style="shape=rhombus;perimeter=rhombusPerimeter;whiteSpace=wrap;html=1;align=center;" parent="1" vertex="1">
          <mxGeometry x="-170" y="720" width="60" height="60" as="geometry" />
        </mxCell>
        <mxCell id="E23f7wQ3UJA1HukhsZAp-26" value="" style="endArrow=none;html=1;rounded=0;entryX=0;entryY=0.5;entryDx=0;entryDy=0;exitX=1;exitY=0;exitDx=0;exitDy=0;" parent="1" source="ZKtoWMeFN9g2J-okj2z--59" target="E23f7wQ3UJA1HukhsZAp-24" edge="1">
          <mxGeometry relative="1" as="geometry">
            <mxPoint x="-400" y="648" as="sourcePoint" />
            <mxPoint x="-190" y="648" as="targetPoint" />
          </mxGeometry>
        </mxCell>
        <mxCell id="E23f7wQ3UJA1HukhsZAp-27" value="" style="endArrow=none;html=1;rounded=0;exitX=1;exitY=0.5;exitDx=0;exitDy=0;entryX=0;entryY=0.5;entryDx=0;entryDy=0;" parent="1" source="E23f7wQ3UJA1HukhsZAp-24" target="TBOXvc80CKV6nfEF6dhi-37" edge="1">
          <mxGeometry relative="1" as="geometry">
            <mxPoint x="-390" y="658" as="sourcePoint" />
            <mxPoint x="60" y="640" as="targetPoint" />
          </mxGeometry>
        </mxCell>
        <mxCell id="E23f7wQ3UJA1HukhsZAp-28" value="Fecha_terminacion" style="ellipse;whiteSpace=wrap;html=1;align=center;" parent="1" vertex="1">
          <mxGeometry x="450" y="477.5" width="100" height="40" as="geometry" />
        </mxCell>
        <mxCell id="E23f7wQ3UJA1HukhsZAp-29" value="" style="endArrow=none;html=1;rounded=0;entryX=0.5;entryY=1;entryDx=0;entryDy=0;exitX=0.5;exitY=0;exitDx=0;exitDy=0;" parent="1" source="TBOXvc80CKV6nfEF6dhi-18" target="E23f7wQ3UJA1HukhsZAp-28" edge="1">
          <mxGeometry relative="1" as="geometry">
            <mxPoint x="570" y="584.5" as="sourcePoint" />
            <mxPoint x="200" y="752" as="targetPoint" />
          </mxGeometry>
        </mxCell>
        <mxCell id="E23f7wQ3UJA1HukhsZAp-30" value="Fecha_nac" style="ellipse;whiteSpace=wrap;html=1;align=center;" parent="1" vertex="1">
          <mxGeometry x="680" y="597.5" width="100" height="40" as="geometry" />
        </mxCell>
        <mxCell id="E23f7wQ3UJA1HukhsZAp-31" value="" style="endArrow=none;html=1;rounded=0;entryX=0;entryY=0.5;entryDx=0;entryDy=0;exitX=1;exitY=0.5;exitDx=0;exitDy=0;" parent="1" source="TBOXvc80CKV6nfEF6dhi-18" target="E23f7wQ3UJA1HukhsZAp-30" edge="1">
          <mxGeometry relative="1" as="geometry">
            <mxPoint x="700" y="650" as="sourcePoint" />
            <mxPoint x="320" y="807" as="targetPoint" />
          </mxGeometry>
        </mxCell>
        <mxCell id="E23f7wQ3UJA1HukhsZAp-32" value="" style="group" parent="1" vertex="1" connectable="0">
          <mxGeometry x="3180" y="942.54" width="160" height="150" as="geometry" />
        </mxCell>
        <mxCell id="E23f7wQ3UJA1HukhsZAp-33" value="id_pago" style="swimlane;fontStyle=0;childLayout=stackLayout;horizontal=1;startSize=40;fillColor=#ffffff;horizontalStack=0;resizeParent=1;resizeParentMax=0;resizeLast=0;collapsible=0;marginBottom=0;swimlaneFillColor=#ffffff;movable=1;resizable=1;rotatable=1;deletable=1;editable=1;locked=0;connectable=1;" parent="E23f7wQ3UJA1HukhsZAp-32" vertex="1">
          <mxGeometry y="30" width="160" height="100" as="geometry" />
        </mxCell>
        <mxCell id="E23f7wQ3UJA1HukhsZAp-34" value="Monto&lt;br&gt;Metodo_pago&lt;br&gt;Cuotas" style="text;html=1;align=center;verticalAlign=middle;whiteSpace=wrap;rounded=0;" parent="E23f7wQ3UJA1HukhsZAp-33" vertex="1">
          <mxGeometry y="40" width="160" height="60" as="geometry" />
        </mxCell>
        <mxCell id="E23f7wQ3UJA1HukhsZAp-35" value="Pago" style="text;html=1;align=center;verticalAlign=middle;whiteSpace=wrap;rounded=0;movable=1;resizable=1;rotatable=1;deletable=1;editable=1;locked=0;connectable=1;" parent="E23f7wQ3UJA1HukhsZAp-32" vertex="1">
          <mxGeometry width="90" height="30" as="geometry" />
        </mxCell>
        <mxCell id="E23f7wQ3UJA1HukhsZAp-38" value="" style="endArrow=classic;startArrow=classic;html=1;rounded=0;exitX=0.75;exitY=0;exitDx=0;exitDy=0;entryX=0.25;entryY=1;entryDx=0;entryDy=0;" parent="1" source="E23f7wQ3UJA1HukhsZAp-33" target="TuO1zeEdH__ycaznmqz_-61" edge="1">
          <mxGeometry width="50" height="50" relative="1" as="geometry">
            <mxPoint x="3310" y="832.54" as="sourcePoint" />
            <mxPoint x="3360" y="782.54" as="targetPoint" />
          </mxGeometry>
        </mxCell>
        <mxCell id="PEfS0vxq5jCtCoeHv0g_-1" value="" style="group" parent="1" vertex="1" connectable="0">
          <mxGeometry x="2530" y="740.04" width="160" height="150" as="geometry" />
        </mxCell>
        <mxCell id="PEfS0vxq5jCtCoeHv0g_-2" value="id_registroNomina" style="swimlane;fontStyle=0;childLayout=stackLayout;horizontal=1;startSize=40;fillColor=#ffffff;horizontalStack=0;resizeParent=1;resizeParentMax=0;resizeLast=0;collapsible=0;marginBottom=0;swimlaneFillColor=#ffffff;movable=1;resizable=1;rotatable=1;deletable=1;editable=1;locked=0;connectable=1;" parent="PEfS0vxq5jCtCoeHv0g_-1" vertex="1">
          <mxGeometry y="30" width="160" height="120" as="geometry" />
        </mxCell>
        <mxCell id="PEfS0vxq5jCtCoeHv0g_-3" value="Sueldo&lt;br&gt;Bonos&lt;br&gt;Fecha_pago" style="text;html=1;align=center;verticalAlign=middle;whiteSpace=wrap;rounded=0;" parent="PEfS0vxq5jCtCoeHv0g_-2" vertex="1">
          <mxGeometry y="40" width="160" height="80" as="geometry" />
        </mxCell>
        <mxCell id="PEfS0vxq5jCtCoeHv0g_-4" value="Nomina" style="text;html=1;align=center;verticalAlign=middle;whiteSpace=wrap;rounded=0;movable=1;resizable=1;rotatable=1;deletable=1;editable=1;locked=0;connectable=1;" parent="PEfS0vxq5jCtCoeHv0g_-1" vertex="1">
          <mxGeometry width="90" height="30" as="geometry" />
        </mxCell>
        <mxCell id="PEfS0vxq5jCtCoeHv0g_-9" value="" style="group" parent="1" vertex="1" connectable="0">
          <mxGeometry x="2770" y="765.04" width="160" height="150" as="geometry" />
        </mxCell>
        <mxCell id="PEfS0vxq5jCtCoeHv0g_-10" value="id_registroNomina&#xa;Id_empleado" style="swimlane;fontStyle=0;childLayout=stackLayout;horizontal=1;startSize=58;fillColor=#ffffff;horizontalStack=0;resizeParent=1;resizeParentMax=0;resizeLast=0;collapsible=0;marginBottom=0;swimlaneFillColor=#ffffff;movable=1;resizable=1;rotatable=1;deletable=1;editable=1;locked=0;connectable=1;" parent="PEfS0vxq5jCtCoeHv0g_-9" vertex="1">
          <mxGeometry y="30" width="160" height="70" as="geometry" />
        </mxCell>
        <mxCell id="PEfS0vxq5jCtCoeHv0g_-12" value="Registro_nomina" style="text;html=1;align=center;verticalAlign=middle;whiteSpace=wrap;rounded=0;movable=1;resizable=1;rotatable=1;deletable=1;editable=1;locked=0;connectable=1;" parent="PEfS0vxq5jCtCoeHv0g_-9" vertex="1">
          <mxGeometry width="90" height="30" as="geometry" />
        </mxCell>
        <mxCell id="PEfS0vxq5jCtCoeHv0g_-13" style="edgeStyle=orthogonalEdgeStyle;rounded=0;orthogonalLoop=1;jettySize=auto;html=1;exitX=0;exitY=0.5;exitDx=0;exitDy=0;entryX=1;entryY=0.25;entryDx=0;entryDy=0;" parent="1" source="PEfS0vxq5jCtCoeHv0g_-10" target="PEfS0vxq5jCtCoeHv0g_-3" edge="1">
          <mxGeometry relative="1" as="geometry" />
        </mxCell>
        <mxCell id="PEfS0vxq5jCtCoeHv0g_-14" style="edgeStyle=orthogonalEdgeStyle;rounded=0;orthogonalLoop=1;jettySize=auto;html=1;exitX=1;exitY=0.5;exitDx=0;exitDy=0;entryX=0;entryY=0.5;entryDx=0;entryDy=0;" parent="1" source="PEfS0vxq5jCtCoeHv0g_-10" target="TuO1zeEdH__ycaznmqz_-65" edge="1">
          <mxGeometry relative="1" as="geometry">
            <Array as="points">
              <mxPoint x="2970" y="830.54" />
              <mxPoint x="2970" y="662.54" />
            </Array>
          </mxGeometry>
        </mxCell>
        <mxCell id="PEfS0vxq5jCtCoeHv0g_-15" value="Sueldo" style="ellipse;whiteSpace=wrap;html=1;align=center;" parent="1" vertex="1">
          <mxGeometry x="680" y="640" width="100" height="40" as="geometry" />
        </mxCell>
        <mxCell id="PEfS0vxq5jCtCoeHv0g_-16" value="" style="endArrow=none;html=1;rounded=0;entryX=0;entryY=0.5;entryDx=0;entryDy=0;exitX=1;exitY=0.5;exitDx=0;exitDy=0;" parent="1" source="TBOXvc80CKV6nfEF6dhi-18" target="PEfS0vxq5jCtCoeHv0g_-15" edge="1">
          <mxGeometry relative="1" as="geometry">
            <mxPoint x="570" y="648" as="sourcePoint" />
            <mxPoint x="330" y="817" as="targetPoint" />
          </mxGeometry>
        </mxCell>
        <mxCell id="6HVuMpTkKKYmP8PlhtzH-1" value="" style="group" parent="1" vertex="1" connectable="0">
          <mxGeometry x="910" y="182.54" width="160" height="190" as="geometry" />
        </mxCell>
        <mxCell id="6HVuMpTkKKYmP8PlhtzH-2" value="Id_proveedor" style="swimlane;fontStyle=0;childLayout=stackLayout;horizontal=1;startSize=20;fillColor=#ffffff;horizontalStack=0;resizeParent=1;resizeParentMax=0;resizeLast=0;collapsible=0;marginBottom=0;swimlaneFillColor=#ffffff;movable=1;resizable=1;rotatable=1;deletable=1;editable=1;locked=0;connectable=1;" parent="6HVuMpTkKKYmP8PlhtzH-1" vertex="1">
          <mxGeometry y="30" width="160" height="160" as="geometry" />
        </mxCell>
        <mxCell id="6HVuMpTkKKYmP8PlhtzH-3" value="Nombre&lt;br&gt;Direccion&lt;div&gt;Responsable&lt;br&gt;Telefono&lt;br&gt;Estado&lt;/div&gt;&lt;div&gt;Fecha_inicio&lt;br&gt;Fecha_terminacion&lt;br&gt;Id_tipoMueble&lt;br&gt;&lt;/div&gt;" style="text;html=1;align=center;verticalAlign=middle;whiteSpace=wrap;rounded=0;" parent="6HVuMpTkKKYmP8PlhtzH-2" vertex="1">
          <mxGeometry y="20" width="160" height="140" as="geometry" />
        </mxCell>
        <mxCell id="6HVuMpTkKKYmP8PlhtzH-4" value="Proveedor" style="text;html=1;align=center;verticalAlign=middle;whiteSpace=wrap;rounded=0;movable=1;resizable=1;rotatable=1;deletable=1;editable=1;locked=0;connectable=1;" parent="6HVuMpTkKKYmP8PlhtzH-1" vertex="1">
          <mxGeometry width="90" height="30" as="geometry" />
        </mxCell>
        <mxCell id="6HVuMpTkKKYmP8PlhtzH-5" value="" style="group" parent="1" vertex="1" connectable="0">
          <mxGeometry x="1420" y="182.54" width="160" height="280" as="geometry" />
        </mxCell>
        <mxCell id="6HVuMpTkKKYmP8PlhtzH-6" value="id_mueble" style="swimlane;fontStyle=0;childLayout=stackLayout;horizontal=1;startSize=40;fillColor=#ffffff;horizontalStack=0;resizeParent=1;resizeParentMax=0;resizeLast=0;collapsible=0;marginBottom=0;swimlaneFillColor=#ffffff;movable=1;resizable=1;rotatable=1;deletable=1;editable=1;locked=0;connectable=1;" parent="6HVuMpTkKKYmP8PlhtzH-5" vertex="1">
          <mxGeometry y="30" width="160" height="250" as="geometry" />
        </mxCell>
        <mxCell id="6HVuMpTkKKYmP8PlhtzH-7" value="Nombre&lt;br&gt;Cantidad&lt;br&gt;Alto&lt;br&gt;Largo&lt;br&gt;Ancho&lt;br&gt;Imagen&lt;br&gt;Precio&lt;div&gt;Garantia&lt;/div&gt;&lt;div&gt;Estado&lt;/div&gt;&lt;div&gt;Fecha_terminacion&lt;br&gt;Id_material&lt;br&gt;Id_color&lt;br&gt;Id_tipoMueble&lt;/div&gt;" style="text;html=1;align=center;verticalAlign=middle;whiteSpace=wrap;rounded=0;" parent="6HVuMpTkKKYmP8PlhtzH-6" vertex="1">
          <mxGeometry y="40" width="160" height="210" as="geometry" />
        </mxCell>
        <mxCell id="6HVuMpTkKKYmP8PlhtzH-8" value="Mueble" style="text;html=1;align=center;verticalAlign=middle;whiteSpace=wrap;rounded=0;movable=1;resizable=1;rotatable=1;deletable=1;editable=1;locked=0;connectable=1;" parent="6HVuMpTkKKYmP8PlhtzH-5" vertex="1">
          <mxGeometry width="90" height="30" as="geometry" />
        </mxCell>
        <mxCell id="6HVuMpTkKKYmP8PlhtzH-9" value="" style="group" parent="1" vertex="1" connectable="0">
          <mxGeometry x="1910" y="572.54" width="160" height="160" as="geometry" />
        </mxCell>
        <mxCell id="6HVuMpTkKKYmP8PlhtzH-10" value="Id_devolucion" style="swimlane;fontStyle=0;childLayout=stackLayout;horizontal=1;startSize=50;fillColor=#ffffff;horizontalStack=0;resizeParent=1;resizeParentMax=0;resizeLast=0;collapsible=0;marginBottom=0;swimlaneFillColor=#ffffff;movable=1;resizable=1;rotatable=1;deletable=1;editable=1;locked=0;connectable=1;" parent="6HVuMpTkKKYmP8PlhtzH-9" vertex="1">
          <mxGeometry y="30" width="160" height="130" as="geometry" />
        </mxCell>
        <mxCell id="6HVuMpTkKKYmP8PlhtzH-11" value="Id_venta&lt;br&gt;id_muebleDevuelto&lt;br&gt;&lt;div&gt;motivo&lt;br&gt;validaciÃ³n&amp;nbsp;&lt;/div&gt;" style="text;html=1;align=center;verticalAlign=middle;whiteSpace=wrap;rounded=0;" parent="6HVuMpTkKKYmP8PlhtzH-10" vertex="1">
          <mxGeometry y="50" width="160" height="80" as="geometry" />
        </mxCell>
        <mxCell id="6HVuMpTkKKYmP8PlhtzH-12" value="Devolucion" style="text;html=1;align=center;verticalAlign=middle;whiteSpace=wrap;rounded=0;movable=1;resizable=1;rotatable=1;deletable=1;editable=1;locked=0;connectable=1;" parent="6HVuMpTkKKYmP8PlhtzH-9" vertex="1">
          <mxGeometry width="90" height="30" as="geometry" />
        </mxCell>
        <mxCell id="6HVuMpTkKKYmP8PlhtzH-13" value="" style="group" parent="1" vertex="1" connectable="0">
          <mxGeometry x="1677" y="462.54" width="160" height="150" as="geometry" />
        </mxCell>
        <mxCell id="6HVuMpTkKKYmP8PlhtzH-14" value="Id_venta" style="swimlane;fontStyle=0;childLayout=stackLayout;horizontal=1;startSize=40;fillColor=#ffffff;horizontalStack=0;resizeParent=1;resizeParentMax=0;resizeLast=0;collapsible=0;marginBottom=0;swimlaneFillColor=#ffffff;movable=1;resizable=1;rotatable=1;deletable=1;editable=1;locked=0;connectable=1;" parent="6HVuMpTkKKYmP8PlhtzH-13" vertex="1">
          <mxGeometry y="30" width="160" height="120" as="geometry" />
        </mxCell>
        <mxCell id="6HVuMpTkKKYmP8PlhtzH-15" value="Fecha&lt;br&gt;Total&lt;br&gt;Id_metodoPago&lt;br&gt;Id_empleado&lt;br&gt;Id_cliente" style="text;html=1;align=center;verticalAlign=middle;whiteSpace=wrap;rounded=0;" parent="6HVuMpTkKKYmP8PlhtzH-14" vertex="1">
          <mxGeometry y="40" width="160" height="80" as="geometry" />
        </mxCell>
        <mxCell id="6HVuMpTkKKYmP8PlhtzH-16" value="Venta" style="text;html=1;align=center;verticalAlign=middle;whiteSpace=wrap;rounded=0;movable=1;resizable=1;rotatable=1;deletable=1;editable=1;locked=0;connectable=1;" parent="6HVuMpTkKKYmP8PlhtzH-13" vertex="1">
          <mxGeometry width="90" height="30" as="geometry" />
        </mxCell>
        <mxCell id="6HVuMpTkKKYmP8PlhtzH-17" value="" style="group" parent="1" vertex="1" connectable="0">
          <mxGeometry x="2160" y="607.54" width="160" height="290" as="geometry" />
        </mxCell>
        <mxCell id="6HVuMpTkKKYmP8PlhtzH-18" value="Id_muebleDevueltoÂ " style="swimlane;fontStyle=0;childLayout=stackLayout;horizontal=1;startSize=50;fillColor=#ffffff;horizontalStack=0;resizeParent=1;resizeParentMax=0;resizeLast=0;collapsible=0;marginBottom=0;swimlaneFillColor=#ffffff;movable=1;resizable=1;rotatable=1;deletable=1;editable=1;locked=0;connectable=1;" parent="6HVuMpTkKKYmP8PlhtzH-17" vertex="1">
          <mxGeometry y="30" width="160" height="260" as="geometry" />
        </mxCell>
        <mxCell id="6HVuMpTkKKYmP8PlhtzH-19" value="Id_devolucion&amp;nbsp;&lt;br&gt;&lt;div&gt;Nombre&lt;br&gt;Cantidad&lt;br&gt;Alto&lt;br&gt;Largo&lt;br&gt;Ancho&lt;br&gt;Imagen&lt;br&gt;Precio&lt;br&gt;Id_material&lt;br&gt;Id_color&lt;br&gt;Id_tipoMueble&lt;br&gt;&lt;/div&gt;" style="text;html=1;align=center;verticalAlign=middle;whiteSpace=wrap;rounded=0;" parent="6HVuMpTkKKYmP8PlhtzH-18" vertex="1">
          <mxGeometry y="50" width="160" height="210" as="geometry" />
        </mxCell>
        <mxCell id="6HVuMpTkKKYmP8PlhtzH-20" value="Mueble_devuelto&amp;nbsp;" style="text;html=1;align=center;verticalAlign=middle;whiteSpace=wrap;rounded=0;movable=1;resizable=1;rotatable=1;deletable=1;editable=1;locked=0;connectable=1;" parent="6HVuMpTkKKYmP8PlhtzH-17" vertex="1">
          <mxGeometry width="110" height="30" as="geometry" />
        </mxCell>
        <mxCell id="6HVuMpTkKKYmP8PlhtzH-21" value="Id_cliente" style="swimlane;fontStyle=0;childLayout=stackLayout;horizontal=1;startSize=40;fillColor=#ffffff;horizontalStack=0;resizeParent=1;resizeParentMax=0;resizeLast=0;collapsible=0;marginBottom=0;swimlaneFillColor=#ffffff;movable=1;resizable=1;rotatable=1;deletable=1;editable=1;locked=0;connectable=1;" parent="1" vertex="1">
          <mxGeometry x="1380" y="722.54" width="160" height="160" as="geometry" />
        </mxCell>
        <mxCell id="6HVuMpTkKKYmP8PlhtzH-22" value="Nombre&lt;br&gt;DirecciÃ³n&lt;br&gt;TelÃ©fono&lt;br&gt;Email&lt;br&gt;Estado&lt;div&gt;Fecha_inicio&lt;br&gt;Fecha_terminacion&lt;/div&gt;" style="text;html=1;align=center;verticalAlign=middle;whiteSpace=wrap;rounded=0;" parent="6HVuMpTkKKYmP8PlhtzH-21" vertex="1">
          <mxGeometry y="40" width="160" height="120" as="geometry" />
        </mxCell>
        <mxCell id="6HVuMpTkKKYmP8PlhtzH-23" value="Cliente" style="text;html=1;align=center;verticalAlign=middle;whiteSpace=wrap;rounded=0;movable=1;resizable=1;rotatable=1;deletable=1;editable=1;locked=0;connectable=1;" parent="1" vertex="1">
          <mxGeometry x="1370" y="692.54" width="90" height="30" as="geometry" />
        </mxCell>
        <mxCell id="6HVuMpTkKKYmP8PlhtzH-24" value="" style="group" parent="1" vertex="1" connectable="0">
          <mxGeometry x="1380" y="482.54" width="160" height="200" as="geometry" />
        </mxCell>
        <mxCell id="6HVuMpTkKKYmP8PlhtzH-25" value="Id_empleado" style="swimlane;fontStyle=0;childLayout=stackLayout;horizontal=1;startSize=40;fillColor=#ffffff;horizontalStack=0;resizeParent=1;resizeParentMax=0;resizeLast=0;collapsible=0;marginBottom=0;swimlaneFillColor=#ffffff;movable=1;resizable=1;rotatable=1;deletable=1;editable=1;locked=0;connectable=1;" parent="6HVuMpTkKKYmP8PlhtzH-24" vertex="1">
          <mxGeometry y="30" width="160" height="170" as="geometry" />
        </mxCell>
        <mxCell id="6HVuMpTkKKYmP8PlhtzH-26" value="Nombre&lt;br&gt;TelÃ©fono&lt;br&gt;Email&lt;div&gt;Sueldo&lt;br&gt;&lt;div&gt;Fecha_nac&lt;br&gt;Fecha_inicio&lt;br&gt;Fecha_terminacion&lt;br&gt;Id_tipoContrato&lt;br&gt;Id_rol&lt;/div&gt;&lt;/div&gt;" style="text;html=1;align=center;verticalAlign=middle;whiteSpace=wrap;rounded=0;" parent="6HVuMpTkKKYmP8PlhtzH-25" vertex="1">
          <mxGeometry y="40" width="160" height="130" as="geometry" />
        </mxCell>
        <mxCell id="6HVuMpTkKKYmP8PlhtzH-27" value="Empleado" style="text;html=1;align=center;verticalAlign=middle;whiteSpace=wrap;rounded=0;movable=1;resizable=1;rotatable=1;deletable=1;editable=1;locked=0;connectable=1;" parent="6HVuMpTkKKYmP8PlhtzH-24" vertex="1">
          <mxGeometry width="90" height="30" as="geometry" />
        </mxCell>
        <mxCell id="6HVuMpTkKKYmP8PlhtzH-28" style="edgeStyle=orthogonalEdgeStyle;rounded=0;orthogonalLoop=1;jettySize=auto;html=1;entryX=1.028;entryY=0.156;entryDx=0;entryDy=0;entryPerimeter=0;" parent="1" source="6HVuMpTkKKYmP8PlhtzH-15" target="6HVuMpTkKKYmP8PlhtzH-26" edge="1">
          <mxGeometry relative="1" as="geometry">
            <Array as="points">
              <mxPoint x="1585" y="572.54" />
            </Array>
          </mxGeometry>
        </mxCell>
        <mxCell id="6HVuMpTkKKYmP8PlhtzH-29" style="edgeStyle=orthogonalEdgeStyle;rounded=0;orthogonalLoop=1;jettySize=auto;html=1;entryX=1;entryY=0.25;entryDx=0;entryDy=0;" parent="1" source="6HVuMpTkKKYmP8PlhtzH-10" target="6HVuMpTkKKYmP8PlhtzH-15" edge="1">
          <mxGeometry relative="1" as="geometry" />
        </mxCell>
        <mxCell id="6HVuMpTkKKYmP8PlhtzH-30" style="edgeStyle=orthogonalEdgeStyle;rounded=0;orthogonalLoop=1;jettySize=auto;html=1;entryX=1;entryY=0.5;entryDx=0;entryDy=0;" parent="1" source="6HVuMpTkKKYmP8PlhtzH-15" target="6HVuMpTkKKYmP8PlhtzH-21" edge="1">
          <mxGeometry relative="1" as="geometry" />
        </mxCell>
        <mxCell id="6HVuMpTkKKYmP8PlhtzH-32" value="" style="group" parent="1" vertex="1" connectable="0">
          <mxGeometry x="1180" y="202.54" width="160" height="130" as="geometry" />
        </mxCell>
        <mxCell id="6HVuMpTkKKYmP8PlhtzH-33" value="Id_proveedoresÂ &#xa;Id_mueble" style="swimlane;fontStyle=0;childLayout=stackLayout;horizontal=1;startSize=40;fillColor=#ffffff;horizontalStack=0;resizeParent=1;resizeParentMax=0;resizeLast=0;collapsible=0;marginBottom=0;swimlaneFillColor=#ffffff;movable=1;resizable=1;rotatable=1;deletable=1;editable=1;locked=0;connectable=1;" parent="6HVuMpTkKKYmP8PlhtzH-32" vertex="1">
          <mxGeometry y="30" width="160" height="100" as="geometry" />
        </mxCell>
        <mxCell id="6HVuMpTkKKYmP8PlhtzH-34" value="Cantidad&lt;br&gt;Fecha_E&lt;br&gt;Costos" style="text;html=1;align=center;verticalAlign=middle;whiteSpace=wrap;rounded=0;" parent="6HVuMpTkKKYmP8PlhtzH-33" vertex="1">
          <mxGeometry y="40" width="160" height="60" as="geometry" />
        </mxCell>
        <mxCell id="6HVuMpTkKKYmP8PlhtzH-35" value="Compra" style="text;html=1;align=center;verticalAlign=middle;whiteSpace=wrap;rounded=0;movable=1;resizable=1;rotatable=1;deletable=1;editable=1;locked=0;connectable=1;" parent="6HVuMpTkKKYmP8PlhtzH-32" vertex="1">
          <mxGeometry width="90" height="30" as="geometry" />
        </mxCell>
        <mxCell id="6HVuMpTkKKYmP8PlhtzH-36" style="edgeStyle=orthogonalEdgeStyle;rounded=0;orthogonalLoop=1;jettySize=auto;html=1;entryX=1;entryY=0.5;entryDx=0;entryDy=0;" parent="1" source="6HVuMpTkKKYmP8PlhtzH-7" target="6HVuMpTkKKYmP8PlhtzH-33" edge="1">
          <mxGeometry relative="1" as="geometry" />
        </mxCell>
        <mxCell id="6HVuMpTkKKYmP8PlhtzH-37" style="edgeStyle=orthogonalEdgeStyle;rounded=0;orthogonalLoop=1;jettySize=auto;html=1;entryX=1;entryY=0.5;entryDx=0;entryDy=0;" parent="1" source="6HVuMpTkKKYmP8PlhtzH-34" target="6HVuMpTkKKYmP8PlhtzH-3" edge="1">
          <mxGeometry relative="1" as="geometry">
            <mxPoint x="1080" y="262.54" as="targetPoint" />
          </mxGeometry>
        </mxCell>
        <mxCell id="6HVuMpTkKKYmP8PlhtzH-38" value="" style="group" parent="1" vertex="1" connectable="0">
          <mxGeometry x="1660" y="252.54" width="160" height="150" as="geometry" />
        </mxCell>
        <mxCell id="6HVuMpTkKKYmP8PlhtzH-39" value="Id_venta&#xa;Id_mueble" style="swimlane;fontStyle=0;childLayout=stackLayout;horizontal=1;startSize=50;fillColor=#ffffff;horizontalStack=0;resizeParent=1;resizeParentMax=0;resizeLast=0;collapsible=0;marginBottom=0;swimlaneFillColor=#ffffff;movable=1;resizable=1;rotatable=1;deletable=1;editable=1;locked=0;connectable=1;" parent="6HVuMpTkKKYmP8PlhtzH-38" vertex="1">
          <mxGeometry y="30" width="160" height="100" as="geometry" />
        </mxCell>
        <mxCell id="6HVuMpTkKKYmP8PlhtzH-40" value="Cantidad" style="text;html=1;align=center;verticalAlign=middle;whiteSpace=wrap;rounded=0;" parent="6HVuMpTkKKYmP8PlhtzH-39" vertex="1">
          <mxGeometry y="50" width="160" height="50" as="geometry" />
        </mxCell>
        <mxCell id="6HVuMpTkKKYmP8PlhtzH-41" value="Registrar" style="text;html=1;align=center;verticalAlign=middle;whiteSpace=wrap;rounded=0;movable=1;resizable=1;rotatable=1;deletable=1;editable=1;locked=0;connectable=1;" parent="6HVuMpTkKKYmP8PlhtzH-38" vertex="1">
          <mxGeometry width="90" height="30" as="geometry" />
        </mxCell>
        <mxCell id="6HVuMpTkKKYmP8PlhtzH-42" style="edgeStyle=orthogonalEdgeStyle;rounded=0;orthogonalLoop=1;jettySize=auto;html=1;entryX=1;entryY=0.25;entryDx=0;entryDy=0;" parent="1" source="6HVuMpTkKKYmP8PlhtzH-40" target="6HVuMpTkKKYmP8PlhtzH-7" edge="1">
          <mxGeometry relative="1" as="geometry" />
        </mxCell>
        <mxCell id="6HVuMpTkKKYmP8PlhtzH-43" style="edgeStyle=orthogonalEdgeStyle;rounded=0;orthogonalLoop=1;jettySize=auto;html=1;exitX=1;exitY=0;exitDx=0;exitDy=0;entryX=1;entryY=0.25;entryDx=0;entryDy=0;" parent="1" source="6HVuMpTkKKYmP8PlhtzH-15" target="6HVuMpTkKKYmP8PlhtzH-40" edge="1">
          <mxGeometry relative="1" as="geometry">
            <Array as="points">
              <mxPoint x="1880" y="532.54" />
              <mxPoint x="1880" y="344.54" />
            </Array>
          </mxGeometry>
        </mxCell>
        <mxCell id="V5iLDVVtie9y6KjqxZQX-7" value="" style="group" vertex="1" connectable="0" parent="1">
          <mxGeometry x="2040" y="439.99999999999994" width="160" height="150" as="geometry" />
        </mxCell>
        <mxCell id="V5iLDVVtie9y6KjqxZQX-8" value="Id_venta&#xa;Id_muebleDevuelto" style="swimlane;fontStyle=0;childLayout=stackLayout;horizontal=1;startSize=50;fillColor=#ffffff;horizontalStack=0;resizeParent=1;resizeParentMax=0;resizeLast=0;collapsible=0;marginBottom=0;swimlaneFillColor=#ffffff;movable=1;resizable=1;rotatable=1;deletable=1;editable=1;locked=0;connectable=1;" vertex="1" parent="V5iLDVVtie9y6KjqxZQX-7">
          <mxGeometry y="30" width="160" height="100" as="geometry" />
        </mxCell>
        <mxCell id="V5iLDVVtie9y6KjqxZQX-9" value="Cantidad" style="text;html=1;align=center;verticalAlign=middle;whiteSpace=wrap;rounded=0;" vertex="1" parent="V5iLDVVtie9y6KjqxZQX-8">
          <mxGeometry y="50" width="160" height="50" as="geometry" />
        </mxCell>
        <mxCell id="V5iLDVVtie9y6KjqxZQX-10" value="Revender" style="text;html=1;align=center;verticalAlign=middle;whiteSpace=wrap;rounded=0;movable=1;resizable=1;rotatable=1;deletable=1;editable=1;locked=0;connectable=1;" vertex="1" parent="V5iLDVVtie9y6KjqxZQX-7">
          <mxGeometry x="1" width="90" height="30" as="geometry" />
        </mxCell>
        <mxCell id="V5iLDVVtie9y6KjqxZQX-11" style="edgeStyle=orthogonalEdgeStyle;rounded=0;orthogonalLoop=1;jettySize=auto;html=1;" edge="1" parent="1" source="V5iLDVVtie9y6KjqxZQX-8" target="6HVuMpTkKKYmP8PlhtzH-19">
          <mxGeometry relative="1" as="geometry">
            <Array as="points">
              <mxPoint x="2120" y="774" />
            </Array>
          </mxGeometry>
        </mxCell>
        <mxCell id="V5iLDVVtie9y6KjqxZQX-12" style="edgeStyle=orthogonalEdgeStyle;rounded=0;orthogonalLoop=1;jettySize=auto;html=1;entryX=1;entryY=0.25;entryDx=0;entryDy=0;" edge="1" parent="1" source="V5iLDVVtie9y6KjqxZQX-9" target="6HVuMpTkKKYmP8PlhtzH-15">
          <mxGeometry relative="1" as="geometry" />
        </mxCell>
        <mxCell id="V5iLDVVtie9y6KjqxZQX-13" style="edgeStyle=orthogonalEdgeStyle;rounded=0;orthogonalLoop=1;jettySize=auto;html=1;entryX=0;entryY=0.5;entryDx=0;entryDy=0;" edge="1" parent="1" source="6HVuMpTkKKYmP8PlhtzH-19" target="6HVuMpTkKKYmP8PlhtzH-11">
          <mxGeometry relative="1" as="geometry" />
        </mxCell>
      </root>
    </mxGraphModel>
  </diagram>
</mxfile>
